<svg width="32" height="32" viewBox="0 0 32 32" fill="none" xmlns="http://www.w3.org/2000/svg">
<rect x="0.5" y="0.5" width="31" height="31" rx="7.5" stroke="#D16F9A"/>
<path d="M10.9591 21.1274C10.9591 21.6497 11.3571 22.0761 11.8468 22.0761H12.8617V24.7634C12.8617 25.4442 13.3722 26 13.9995 26C14.6288 26 15.1373 25.4465 15.1373 24.7634V22.0738H16.9086V24.7612C16.9086 25.442 17.4191 25.9978 18.0464 25.9978C18.6757 25.9978 19.1842 25.4442 19.1842 24.7612V22.0738H20.199C20.6887 22.0738 21.0867 21.6475 21.0867 21.1252V12.3042H10.9591V21.1274ZM18.4006 7.73296L19.3363 6.28213C19.3905 6.19731 19.378 6.08348 19.305 6.02767C19.2321 5.97411 19.1279 6.00089 19.0737 6.08571L18.1026 7.59457C17.4629 7.32449 16.7502 7.17494 16.0021 7.17494C15.254 7.17494 14.5413 7.32449 13.9015 7.59457L12.9304 6.08794C12.8763 6.00312 12.7721 5.97411 12.6991 6.02991C12.6262 6.08348 12.6137 6.19508 12.6679 6.28436L13.6035 7.73519C12.1157 8.47623 11.0737 9.88018 10.9403 11.5207H21.068C20.9304 9.87795 19.8864 8.47399 18.4006 7.73296ZM13.864 10.0208C13.7532 10.0208 13.6448 9.98559 13.5526 9.91961C13.4604 9.85364 13.3886 9.75986 13.3461 9.65015C13.3037 9.54044 13.2926 9.41971 13.3142 9.30324C13.3359 9.18677 13.3893 9.07979 13.4676 8.99582C13.546 8.91185 13.6459 8.85467 13.7547 8.8315C13.8634 8.80833 13.9761 8.82022 14.0785 8.86567C14.181 8.91111 14.2685 8.98807 14.3301 9.08681C14.3917 9.18554 14.4246 9.30163 14.4246 9.42038C14.4242 9.5795 14.365 9.73197 14.26 9.84449C14.1549 9.957 14.0126 10.0204 13.864 10.0208ZM18.2068 10.0208C18.096 10.0208 17.9876 9.98559 17.8954 9.91961C17.8032 9.85364 17.7314 9.75986 17.6889 9.65015C17.6465 9.54044 17.6354 9.41971 17.657 9.30324C17.6787 9.18677 17.732 9.07979 17.8104 8.99582C17.8888 8.91185 17.9887 8.85467 18.0975 8.8315C18.2062 8.80833 18.3189 8.82022 18.4213 8.86567C18.5238 8.91111 18.6113 8.98807 18.6729 9.08681C18.7345 9.18554 18.7674 9.30163 18.7674 9.42038C18.767 9.5795 18.7078 9.73197 18.6028 9.84449C18.4977 9.957 18.3554 10.0204 18.2068 10.0208ZM22.8622 12.2685C22.2329 12.2685 21.7244 12.822 21.7244 13.505V18.3352C21.7244 19.0159 22.2349 19.5717 22.8622 19.5717C23.4915 19.5717 24 19.0182 24 18.3352V13.5028C24.0021 12.8198 23.4936 12.2685 22.8622 12.2685ZM9.1378 12.2685C8.50847 12.2685 8 12.822 8 13.505V18.3352C8 19.0159 8.51055 19.5717 9.1378 19.5717C9.76713 19.5717 10.2756 19.0182 10.2756 18.3352V13.5028C10.2756 12.8198 9.76504 12.2685 9.1378 12.2685Z" fill="#D16F9A"/>
</svg>
