<svg width="32" height="32" viewBox="0 0 32 32" fill="none" xmlns="http://www.w3.org/2000/svg">
<rect x="0.5" y="0.5" width="31" height="31" rx="7.5" stroke="#D16F9A"/>
<path d="M21.3311 25.1976C20.2972 26.253 19.1685 26.0864 18.0819 25.5864C16.9321 25.0754 15.8771 25.0532 14.664 25.5864C13.1449 26.2752 12.3432 26.0752 11.4359 25.1976C6.28795 19.6094 7.04749 11.0994 12.8917 10.7883C14.3159 10.8661 15.3075 11.6104 16.1409 11.6771C17.3857 11.4104 18.5777 10.6439 19.9069 10.7438C21.4998 10.8772 22.7025 11.5437 23.4936 12.7436C20.2023 14.8211 20.9829 19.3872 24 20.6648C23.3987 22.3313 22.6181 23.9866 21.3205 25.2087L21.3311 25.1976ZM16.0354 10.7216C15.8771 8.24416 17.7865 6.19997 19.9808 6C20.2867 8.8663 17.5123 10.9994 16.0354 10.7216Z" fill="#D16F9A"/>
</svg>
