<svg width="20" height="20" viewBox="0 0 20 20" fill="none" xmlns="http://www.w3.org/2000/svg">
<g clip-path="url(#clip0_419_43616)">
<path d="M14.7452 10.0002C14.7429 9.25319 14.6628 8.50844 14.5063 7.77799H16.5063C16.4033 7.47331 16.2789 7.17627 16.1341 6.88911H14.273C13.9231 5.72025 13.3804 4.61804 12.6674 3.628C12.2118 3.43644 11.7368 3.29487 11.2507 3.20577C12.2276 4.25535 12.9649 5.50449 13.4118 6.86688H10.4174V3.11133H9.58407V6.87244H6.58963C7.03745 5.50758 7.77675 4.25644 8.75629 3.20577C8.27228 3.29338 7.79916 3.43309 7.34518 3.62244C6.62932 4.60834 6.08294 5.70675 5.72852 6.87244H3.85629C3.70883 7.16485 3.58258 7.46748 3.47852 7.77799H5.49518C5.33868 8.50844 5.25861 9.25319 5.25629 10.0002C5.25783 10.8173 5.351 11.6317 5.53407 12.428H3.5674C3.68234 12.7394 3.81974 13.042 3.97852 13.3336H5.77296C6.11308 14.3979 6.6173 15.4026 7.2674 16.3113C7.73294 16.511 8.21928 16.6582 8.7174 16.7502C7.81069 15.7612 7.11338 14.599 6.6674 13.3336H9.58963V16.8558H10.423V13.3336H13.3341C12.8866 14.5995 12.1873 15.7618 11.2785 16.7502C11.779 16.655 12.2672 16.5041 12.7341 16.3002C13.3832 15.3949 13.8873 14.394 14.2285 13.3336H16.0063C16.1643 13.0474 16.3017 12.7504 16.4174 12.4447H14.4452C14.637 11.6438 14.7376 10.8237 14.7452 10.0002ZM9.58407 12.428H6.39518C6.00406 10.899 5.9869 9.29833 6.34518 7.76133H9.58407V12.428ZM13.6063 12.428H10.4174V7.77799H13.6563C13.8159 8.50785 13.8941 9.25313 13.8896 10.0002C13.8941 10.818 13.799 11.6332 13.6063 12.428Z" fill="#D16F9A"/>
<path d="M10.0002 1.11133C8.24217 1.11133 6.52359 1.63265 5.06182 2.60938C3.60005 3.5861 2.46074 4.97435 1.78796 6.59859C1.11518 8.22282 0.93915 10.0101 1.28213 11.7344C1.62511 13.4586 2.47169 15.0425 3.71483 16.2856C4.95796 17.5287 6.54181 18.3753 8.26609 18.7183C9.99036 19.0613 11.7776 18.8853 13.4019 18.2125C15.0261 17.5397 16.4143 16.4004 17.3911 14.9386C18.3678 13.4768 18.8891 11.7583 18.8891 10.0002C18.8891 7.64274 17.9526 5.38181 16.2856 3.71482C14.6186 2.04783 12.3577 1.11133 10.0002 1.11133ZM10.0002 17.778C8.46192 17.778 6.95817 17.3218 5.67912 16.4672C4.40007 15.6126 3.40317 14.3978 2.81449 12.9766C2.22581 11.5554 2.07178 9.99159 2.37189 8.48285C2.672 6.97411 3.41276 5.58824 4.5005 4.5005C5.58824 3.41276 6.97411 2.67199 8.48285 2.37189C9.99159 2.07178 11.5554 2.22581 12.9766 2.81449C14.3979 3.40317 15.6126 4.40007 16.4672 5.67912C17.3218 6.95816 17.778 8.46192 17.778 10.0002C17.778 12.063 16.9586 14.0413 15.4999 15.4999C14.0413 16.9586 12.063 17.778 10.0002 17.778Z" fill="#D16F9A"/>
</g>
<defs>
<clipPath id="clip0_419_43616">
<rect width="20" height="20" fill="white"/>
</clipPath>
</defs>
</svg>
