<svg width="20" height="20" viewBox="0 0 20 20" fill="none" xmlns="http://www.w3.org/2000/svg">
<path d="M3.33398 15.0013C3.33398 14.1172 3.68517 13.2694 4.31029 12.6443C4.93542 12.0192 5.78326 11.668 6.66732 11.668H13.334C14.218 11.668 15.0659 12.0192 15.691 12.6443C16.3161 13.2694 16.6673 14.1172 16.6673 15.0013C16.6673 15.4433 16.4917 15.8673 16.1792 16.1798C15.8666 16.4924 15.4427 16.668 15.0007 16.668H5.00065C4.55862 16.668 4.1347 16.4924 3.82214 16.1798C3.50958 15.8673 3.33398 15.4433 3.33398 15.0013Z" stroke="#D16F9A" stroke-width="1.5" stroke-linejoin="round"/>
<path d="M10 8.33398C11.3807 8.33398 12.5 7.2147 12.5 5.83398C12.5 4.45327 11.3807 3.33398 10 3.33398C8.61929 3.33398 7.5 4.45327 7.5 5.83398C7.5 7.2147 8.61929 8.33398 10 8.33398Z" stroke="#D16F9A" stroke-width="1.5"/>
</svg>
