<svg width="24" height="24" viewBox="0 0 24 24" fill="none" xmlns="http://www.w3.org/2000/svg">
<g clip-path="url(#clip0_419_43635)">
<path d="M3.63922 4.93987V7.70654H4.43255V4.0332H3.79922L2.69922 4.7732L3.01255 5.3332L3.63922 4.93987Z" fill="#D16F9A"/>
<path d="M3.7125 9.88078C3.7812 9.87439 3.85048 9.88209 3.9161 9.90342C3.98172 9.92474 4.04229 9.95925 4.09409 10.0048C4.1459 10.0504 4.18786 10.1061 4.21739 10.1684C4.24692 10.2308 4.26341 10.2985 4.26583 10.3675C4.26583 10.6208 4.12583 10.8608 3.68583 11.2141L2.3525 12.2608V12.9275H5.1125V12.1875H3.5525L4.21917 11.6741C4.88583 11.2075 5.0725 10.8275 5.0725 10.3408C5.06687 10.1745 5.02729 10.0112 4.95621 9.8608C4.88513 9.7104 4.78404 9.57613 4.65917 9.46624C4.53429 9.35635 4.38826 9.27315 4.23004 9.22177C4.07183 9.17039 3.90478 9.1519 3.73917 9.16745C3.46133 9.16584 3.18708 9.23028 2.93904 9.35546C2.69099 9.48064 2.47624 9.66298 2.3125 9.88745L2.81917 10.3741C2.92096 10.2296 3.05427 10.1101 3.20903 10.0246C3.36379 9.93913 3.53595 9.88996 3.7125 9.88078Z" fill="#D16F9A"/>
<path d="M4.37323 16.4259C4.56247 16.3786 4.73064 16.2698 4.85132 16.1165C4.97199 15.9633 5.03832 15.7743 5.0399 15.5792C5.0399 14.9992 4.5199 14.5725 3.70656 14.5725C3.43755 14.5678 3.17111 14.6256 2.92819 14.7413C2.68527 14.857 2.47249 15.0274 2.30656 15.2392L2.76656 15.7192C2.87303 15.5913 3.00521 15.4872 3.15452 15.4137C3.30383 15.3402 3.46693 15.2989 3.63323 15.2925C3.99323 15.2925 4.24656 15.4659 4.24656 15.7325C4.24656 15.9992 4.00656 16.1459 3.5799 16.1459H3.19323V16.8125H3.6199C4.11323 16.8125 4.33323 16.9525 4.33323 17.2325C4.33323 17.5125 4.0999 17.6859 3.66656 17.6859C3.48325 17.6844 3.3022 17.6452 3.13473 17.5706C2.96726 17.4961 2.81696 17.3878 2.69323 17.2525L2.22656 17.7725C2.41236 17.9767 2.64041 18.1379 2.89486 18.245C3.1493 18.3521 3.42402 18.4024 3.6999 18.3925C4.5599 18.3925 5.1199 17.9325 5.1199 17.2992C5.11937 17.0887 5.04396 16.8852 4.90717 16.7252C4.77037 16.5652 4.5811 16.4591 4.37323 16.4259Z" fill="#D16F9A"/>
<path d="M21.6127 6.00065C21.6127 5.82384 21.5424 5.65427 21.4174 5.52925C21.2924 5.40422 21.1228 5.33398 20.946 5.33398H6.66602V6.66732H20.946C21.1228 6.66732 21.2924 6.59708 21.4174 6.47206C21.5424 6.34703 21.6127 6.17746 21.6127 6.00065Z" fill="#D16F9A"/>
<path d="M20.946 10.666H6.66602V11.9993H20.946C21.1228 11.9993 21.2924 11.9291 21.4174 11.8041C21.5424 11.6791 21.6127 11.5095 21.6127 11.3327C21.6127 11.1559 21.5424 10.9863 21.4174 10.8613C21.2924 10.7363 21.1228 10.666 20.946 10.666Z" fill="#D16F9A"/>
<path d="M20.946 16H6.66602V17.3333H20.946C21.1228 17.3333 21.2924 17.2631 21.4174 17.1381C21.5424 17.013 21.6127 16.8435 21.6127 16.6667C21.6127 16.4899 21.5424 16.3203 21.4174 16.1953C21.2924 16.0702 21.1228 16 20.946 16Z" fill="#D16F9A"/>
</g>
<defs>
<clipPath id="clip0_419_43635">
<rect width="24" height="24" fill="white"/>
</clipPath>
</defs>
</svg>
