<svg width="20" height="20" viewBox="0 0 20 20" fill="none" xmlns="http://www.w3.org/2000/svg">
<g clip-path="url(#clip0_419_43667)">
<path d="M15.834 8.01602C15.834 10.166 14.7757 11.8202 13.1657 12.9094C12.7907 13.1627 12.6032 13.2894 12.5107 13.4344C12.419 13.5777 12.3865 13.7677 12.324 14.146L12.274 14.4402C12.164 15.1052 12.1082 15.4377 11.8748 15.6352C11.6415 15.8327 11.3048 15.8327 10.6307 15.8327H8.45398C7.77982 15.8327 7.44315 15.8327 7.20982 15.6352C6.97648 15.4377 6.92148 15.1052 6.80982 14.4402L6.76148 14.146C6.69815 13.7685 6.66732 13.5794 6.57565 13.436C6.48398 13.2927 6.29565 13.1644 5.91982 12.9077C4.32732 11.8185 3.33398 10.1652 3.33398 8.01602C3.33398 4.51019 6.13232 1.66602 9.58398 1.66602C10.0039 1.66557 10.4227 1.70802 10.834 1.79269" stroke="#D16F9A" stroke-width="1.5" stroke-linecap="round" stroke-linejoin="round"/>
<path d="M11.2513 15.8327V16.666C11.2513 17.4518 11.2513 17.8443 11.0071 18.0885C10.763 18.3327 10.3705 18.3327 9.58464 18.3327C8.7988 18.3327 8.4063 18.3327 8.16214 18.0885C7.91797 17.8443 7.91797 17.4518 7.91797 16.666V15.8327M13.7513 1.66602L13.9663 2.24685C14.248 3.00852 14.3888 3.38935 14.6663 3.66685C14.9446 3.94518 15.3255 4.08602 16.0871 4.36768L16.668 4.58268L16.0871 4.79768C15.3255 5.07935 14.9446 5.22018 14.6671 5.49768C14.3888 5.77602 14.248 6.15685 13.9663 6.91852L13.7513 7.49935L13.5363 6.91852C13.2546 6.15685 13.1138 5.77602 12.8363 5.49852C12.558 5.22018 12.1771 5.07935 11.4155 4.79768L10.8346 4.58268L11.4155 4.36768C12.1771 4.08602 12.558 3.94518 12.8355 3.66768C13.1138 3.38935 13.2546 3.00852 13.5363 2.24685L13.7513 1.66602Z" stroke="#D16F9A" stroke-width="1.5" stroke-linecap="round" stroke-linejoin="round"/>
</g>
<defs>
<clipPath id="clip0_419_43667">
<rect width="20" height="20" fill="white"/>
</clipPath>
</defs>
</svg>
