<svg width="24" height="24" viewBox="0 0 24 24" fill="none" xmlns="http://www.w3.org/2000/svg">
<g clip-path="url(#clip0_419_43651)">
<path d="M16.6942 3.19919H13.3578C12.7549 3.20111 12.7774 4.09967 13.3578 4.09439H16.6942V4.55375H13.3578C12.7582 4.54847 12.7803 5.44655 13.3578 5.44895H16.6942V5.91839H13.3578C12.7582 5.91839 12.7803 6.81599 13.3578 6.81359H16.6942V7.26095H13.3578C12.7707 7.26527 12.7803 8.16383 13.3578 8.16671H16.6942V8.61503H13.3578C12.7707 8.61311 12.7683 9.51023 13.3578 9.51023H16.6942V9.95759H13.3578C12.7707 9.95951 12.7683 10.8576 13.3578 10.8533H16.6942V11.3117H13.3578C12.7707 11.3064 12.7683 12.2035 13.3578 12.2069H16.6942V12.6533H13.3578C12.7707 12.6528 12.7803 13.5518 13.3578 13.5489H16.6942V22.2653C16.6962 23.5934 18.7136 23.5694 18.7194 22.2653V1.86767C18.7136 1.26095 18.2154 0.493909 17.3955 0.491509H13.3578C12.7549 0.491989 12.7774 1.39055 13.3578 1.38671L16.6942 1.39775V1.84415H13.3578C12.7558 1.84127 12.7784 2.73935 13.3578 2.73983H16.6942V3.19919ZM13.1283 18.6523C13.1264 17.1019 11.5194 15.4344 9.59935 16.5144V10.5845L8.35759 0.804469C8.33167 0.545749 8.11231 0.484789 7.96495 0.480469C7.81279 0.484789 7.50799 0.545749 7.47487 0.804469L6.23935 10.5845V16.5144C4.31935 15.4344 2.76415 17.1125 2.76367 18.6403C2.76415 19.9997 3.81055 21.1161 5.22655 21.1128C6.65311 21.1161 7.67935 19.8648 7.67935 18.6403V12.4805H8.15935V18.6403C8.15935 20.0112 9.22111 21.0259 10.401 21.0902C10.3813 21.8419 10.6266 22.9142 11.0883 23.3395C11.6298 23.8387 12.2744 23.2003 12.0099 22.6805C11.7546 22.1966 11.504 21.9101 11.7075 20.8536C12.5581 20.46 13.1264 19.6315 13.1283 18.6523ZM5.28127 19.872C4.9576 19.872 4.64719 19.7434 4.41832 19.5145C4.18945 19.2857 4.06087 18.9753 4.06087 18.6516C4.06087 18.3279 4.18945 18.0175 4.41832 17.7886C4.64719 17.5598 4.9576 17.4312 5.28127 17.4312C5.94655 17.435 6.48847 17.9808 6.49327 18.6523C6.49215 18.9741 6.36434 19.2825 6.13751 19.5108C5.91067 19.7391 5.60307 19.8688 5.28127 19.872ZM9.39535 18.6523C9.39647 18.3303 9.5243 18.0216 9.7512 17.7931C9.97809 17.5646 10.2858 17.4346 10.6078 17.4312C10.9299 17.4343 11.2377 17.5643 11.4646 17.7929C11.6914 18.0215 11.8191 18.3303 11.8198 18.6523C11.8193 18.9743 11.6917 19.2831 11.4648 19.5115C11.2378 19.7399 10.9298 19.8695 10.6078 19.872C10.286 19.869 9.97822 19.7393 9.75129 19.511C9.52435 19.2827 9.39647 18.9742 9.39535 18.6523Z" fill="#D16F9A"/>
</g>
<defs>
<clipPath id="clip0_419_43651">
<rect width="24" height="24" fill="white"/>
</clipPath>
</defs>
</svg>
