<svg width="32" height="32" viewBox="0 0 32 32" fill="none" xmlns="http://www.w3.org/2000/svg">
<path d="M7.48736 24.2821C7.25447 24.2821 7.05936 24.2061 6.90202 24.0541C6.74469 23.9021 6.66602 23.7136 6.66602 23.4887C6.66602 23.2639 6.74469 23.0705 6.90202 22.9087C7.05936 22.747 7.25447 22.6661 7.48736 22.6661H16.666C16.8554 22.6661 17.0136 22.7327 17.1407 22.8661C17.2678 22.9994 17.3318 23.1639 17.3327 23.3594C17.3327 23.5479 17.2691 23.7061 17.142 23.8341C17.0149 23.9621 16.8647 24.0256 16.6914 24.0247L7.48736 24.2821ZM7.33269 19.1021C7.14336 19.1021 6.98514 19.0381 6.85802 18.9101C6.73091 18.7821 6.66691 18.6234 6.66602 18.4341C6.66514 18.2447 6.72914 18.0865 6.85802 17.9594C6.98691 17.8323 7.14514 17.7687 7.33269 17.7687H24.666C24.8554 17.7687 25.0136 17.8327 25.1407 17.9607C25.2687 18.0887 25.3327 18.2474 25.3327 18.4367C25.3327 18.6261 25.2687 18.7843 25.1407 18.9114C25.0127 19.0385 24.8545 19.1021 24.666 19.1021H7.33269ZM7.33269 14.2301C7.14336 14.2301 6.98514 14.1661 6.85802 14.0381C6.73002 13.9101 6.66602 13.7519 6.66602 13.5634C6.66602 13.3741 6.73002 13.2154 6.85802 13.0874C6.98602 12.9594 7.14425 12.8959 7.33269 12.8967H24.666C24.8554 12.8967 25.0136 12.9607 25.1407 13.0887C25.2678 13.2167 25.3318 13.3754 25.3327 13.5647C25.3336 13.7541 25.2696 13.9123 25.1407 14.0394C25.0118 14.1665 24.8536 14.2301 24.666 14.2301H7.33269ZM7.48736 9.33275C7.25447 9.33275 7.05936 9.25408 6.90202 9.09675C6.74469 8.93941 6.66602 8.74475 6.66602 8.51275C6.66602 8.28075 6.74469 8.08564 6.90202 7.92741C7.05936 7.76919 7.25447 7.69052 7.48736 7.69141H24.5127C24.7447 7.69141 24.9394 7.77008 25.0967 7.92741C25.254 8.08475 25.3327 8.27986 25.3327 8.51275C25.3327 8.74564 25.254 8.9403 25.0967 9.09675C24.9394 9.25319 24.7447 9.33186 24.5127 9.33275H7.48736Z" fill="#D16F9A"/>
</svg>
