<svg width="18" height="18" viewBox="0 0 18 18" fill="none" xmlns="http://www.w3.org/2000/svg">
<path d="M0 17.5C0 15.7319 0.702379 14.0362 1.95262 12.786C3.20286 11.5357 4.89856 10.8333 6.66667 10.8333C8.43478 10.8333 10.1305 11.5357 11.3807 12.786C12.631 14.0362 13.3333 15.7319 13.3333 17.5H11.6667C11.6667 16.1739 11.1399 14.9021 10.2022 13.9645C9.26452 13.0268 7.99275 12.5 6.66667 12.5C5.34058 12.5 4.06881 13.0268 3.13113 13.9645C2.19345 14.9021 1.66667 16.1739 1.66667 17.5H0ZM6.66667 10C3.90417 10 1.66667 7.7625 1.66667 5C1.66667 2.2375 3.90417 0 6.66667 0C9.42917 0 11.6667 2.2375 11.6667 5C11.6667 7.7625 9.42917 10 6.66667 10ZM6.66667 8.33333C8.50833 8.33333 10 6.84167 10 5C10 3.15833 8.50833 1.66667 6.66667 1.66667C4.825 1.66667 3.33333 3.15833 3.33333 5C3.33333 6.84167 4.825 8.33333 6.66667 8.33333ZM13.57 11.4192C14.7412 11.9464 15.7352 12.8008 16.4324 13.8796C17.1296 14.9583 17.5003 16.2155 17.5 17.5H15.8333C15.8336 16.5366 15.5556 15.5937 15.0327 14.7846C14.5098 13.9755 13.7643 13.3346 12.8858 12.9392L13.57 11.4192ZM12.9967 2.01083C13.8363 2.35691 14.5541 2.94461 15.0592 3.69936C15.5642 4.4541 15.8337 5.34187 15.8333 6.25C15.8335 7.39356 15.4062 8.49586 14.6352 9.34049C13.8643 10.1851 12.8055 10.711 11.6667 10.815V9.1375C12.2841 9.04907 12.857 8.76502 13.3011 8.32705C13.7452 7.88908 14.0372 7.32027 14.1343 6.70411C14.2313 6.08796 14.1283 5.45691 13.8403 4.90363C13.5523 4.35034 13.0945 3.90395 12.5342 3.63L12.9967 2.01083Z" fill="#D16F9A"/>
</svg>
