<svg width="20" height="20" viewBox="0 0 20 20" fill="none" xmlns="http://www.w3.org/2000/svg">
<path d="M11.2939 8.18555C12.0409 6.7424 14.0812 5.88853 15.9893 6.23145C16.9222 6.39921 17.791 6.85091 18.4277 7.63379C19.0637 8.41573 19.5 9.56756 19.5 11.1895V19.5H16.3555V12.7002C16.3554 11.4964 16.0151 10.5586 15.4463 9.9209C14.8759 9.28147 14.1055 8.97976 13.334 9.00879C11.7698 9.06781 10.3497 10.4449 10.3496 12.7002V19.5H7.21582V6.58984H10.3799L10.3496 7.94531L11.2939 8.18555ZM3.75977 6.58984V19.5H0.5625V6.58984H3.75977ZM2.09961 0.5C2.51401 0.500272 2.91762 0.674915 3.21973 0.995117C3.5226 1.31625 3.69741 1.75722 3.69727 2.22266C3.69705 2.68814 3.5219 3.12934 3.21875 3.4502C2.91631 3.77011 2.51212 3.94456 2.09766 3.94434C1.68326 3.94406 1.27965 3.76942 0.977539 3.44922C0.674659 3.12812 0.499894 2.6871 0.5 2.22168C0.50022 1.75602 0.67516 1.31405 0.978516 0.993164C1.28095 0.673305 1.68518 0.499781 2.09961 0.5Z" stroke="#D16F9A"/>
</svg>
