<svg width="21" height="21" viewBox="0 0 21 21" fill="none" xmlns="http://www.w3.org/2000/svg">
<path d="M19.9285 14.6276C19.7895 14.2437 19.5248 14.0382 19.2233 13.8681C19.1666 13.8343 19.1145 13.8074 19.07 13.7866C18.9801 13.7394 18.8881 13.6937 18.7966 13.6455C17.8569 13.1396 17.1231 12.5015 16.6142 11.7451C16.4697 11.5321 16.3443 11.3064 16.2396 11.0706C16.1962 10.9445 16.1982 10.8729 16.2294 10.8075C16.2603 10.7572 16.3012 10.7139 16.3495 10.6804C16.511 10.572 16.6776 10.462 16.7905 10.3878C16.9918 10.2555 17.1512 10.1507 17.254 10.0765C17.6398 9.80259 17.9096 9.51153 18.0782 9.18623C18.1958 8.96148 18.2645 8.71365 18.2794 8.45958C18.2943 8.20551 18.2551 7.95115 18.1645 7.71382C17.9091 7.03105 17.2739 6.60718 16.5043 6.60718C16.342 6.60702 16.1801 6.62441 16.0214 6.65906C15.979 6.6684 15.9366 6.67825 15.8952 6.68915C15.9024 6.22221 15.8922 5.72933 15.8513 5.24423C15.7062 3.53887 15.118 2.64495 14.5048 1.93209C14.1121 1.48538 13.6496 1.10745 13.1359 0.81351C12.2053 0.273937 11.1501 0 9.9999 0C8.84965 0 7.79956 0.273937 6.86802 0.81351C6.353 1.10754 5.88955 1.48623 5.49652 1.93416C4.88332 2.64702 4.29517 3.5425 4.15005 5.24631C4.10917 5.73141 4.09895 6.22688 4.10559 6.69122C4.0642 6.68033 4.0223 6.67047 3.97989 6.66113C3.82119 6.62649 3.65932 6.6091 3.497 6.60925C2.72693 6.60925 2.09075 7.03313 1.83627 7.71589C1.74531 7.95333 1.70576 8.20787 1.72031 8.4622C1.73486 8.71654 1.80316 8.96471 1.92058 9.18986C2.08972 9.51516 2.35953 9.80622 2.74533 10.0802C2.84753 10.1528 3.00747 10.2576 3.2088 10.3915C3.31764 10.463 3.47656 10.5678 3.63241 10.6727C3.68694 10.7084 3.73329 10.7557 3.76834 10.8112C3.80104 10.8791 3.80206 10.9523 3.75352 11.0872C3.65027 11.318 3.52697 11.539 3.38509 11.7476C2.88738 12.487 2.17506 13.1137 1.26549 13.6154C0.783625 13.8748 0.282852 14.0481 0.0713006 14.6318C-0.0881293 15.0722 0.0161132 15.5734 0.421331 15.9957C0.570049 16.1534 0.74254 16.2859 0.932324 16.3885C1.32721 16.6088 1.74712 16.7794 2.18272 16.8964C2.27262 16.92 2.35796 16.9587 2.43516 17.0111C2.58283 17.1423 2.56188 17.34 2.75861 17.6295C2.85737 17.7791 2.98285 17.9086 3.12857 18.0114C3.54146 18.3009 4.00544 18.319 4.49701 18.3382C4.94107 18.3553 5.44439 18.3751 6.01926 18.5675C6.25738 18.6474 6.50471 18.802 6.79137 18.9826C7.47968 19.4122 8.42195 20 9.99888 20C11.5758 20 12.5247 19.4091 13.2181 18.9779C13.5028 18.8005 13.7485 18.6474 13.98 18.5696C14.5549 18.3766 15.0582 18.3574 15.5023 18.3403C15.9938 18.3211 16.4578 18.3029 16.8707 18.0134C17.0433 17.8913 17.1871 17.7318 17.2918 17.5465C17.4333 17.3021 17.4297 17.1314 17.5626 17.0121C17.635 16.9623 17.7152 16.9251 17.7997 16.9021C18.2413 16.7847 18.6669 16.6126 19.067 16.3895C19.2686 16.2797 19.4501 16.1354 19.6035 15.9631L19.6086 15.9568C19.9888 15.5439 20.0843 15.0572 19.9285 14.6276ZM18.5268 15.3924C17.672 15.8717 17.1037 15.8204 16.6617 16.1094C16.2861 16.3548 16.5084 16.884 16.2355 17.0749C15.9003 17.3099 14.9095 17.0583 13.6295 17.4874C12.5738 17.8417 11.9003 18.8607 10.0014 18.8607C8.10258 18.8607 7.44493 17.8438 6.37185 17.4848C5.09436 17.0557 4.1015 17.3073 3.76578 17.0723C3.49342 16.8814 3.71468 16.3522 3.33961 16.1068C2.89709 15.8178 2.32887 15.8692 1.47449 15.3924C0.93028 15.0873 1.23892 14.8984 1.42032 14.8092C4.51694 13.287 5.01107 10.9367 5.03304 10.7624C5.05962 10.5512 5.08925 10.3852 4.86033 10.1704C4.63907 9.9629 3.65745 9.34603 3.38509 9.15303C2.9344 8.83343 2.73613 8.51436 2.88227 8.12213C2.98447 7.85079 3.23384 7.74858 3.49547 7.74858C3.57815 7.74884 3.66057 7.75823 3.74125 7.7766C4.2359 7.88555 4.71623 8.13718 4.9937 8.20514C5.02711 8.21385 5.06141 8.21855 5.0959 8.21915C5.24408 8.21915 5.29621 8.1434 5.28599 7.97116C5.2543 7.42172 5.17766 6.35088 5.26299 5.35007C5.38001 3.97313 5.81691 3.29088 6.33608 2.68749C6.58544 2.39747 7.75715 1.14037 9.99786 1.14037C12.2386 1.14037 13.4133 2.39228 13.6627 2.68126C14.1824 3.28465 14.6198 3.9669 14.7358 5.34385C14.8211 6.34465 14.7475 7.41602 14.7128 7.96493C14.701 8.146 14.7547 8.21292 14.9029 8.21292C14.9374 8.21236 14.9717 8.20766 15.0051 8.19892C15.2831 8.13095 15.7634 7.87932 16.258 7.77037C16.3387 7.75201 16.4211 7.74261 16.5038 7.74235C16.767 7.74235 17.0148 7.84612 17.117 8.1159C17.2632 8.50813 17.0659 8.82721 16.6147 9.1468C16.3423 9.3398 15.3607 9.95616 15.1395 10.1642C14.91 10.379 14.9402 10.545 14.9668 10.7562C14.9887 10.9331 15.4823 13.2834 18.5795 14.803C18.7624 14.8958 19.0711 15.0847 18.5268 15.3924Z" fill="#D16F9A"/>
</svg>
