<svg width="16" height="20" viewBox="0 0 16 20" fill="none" xmlns="http://www.w3.org/2000/svg">
<path fill-rule="evenodd" clip-rule="evenodd" d="M2.11699 2.40488C3.53534 0.893005 5.59182 0 8.13789 0C12.3233 0 15.0986 2.41221 15.9769 5.75502C16.0387 5.99028 16.0044 6.24044 15.8818 6.45046C15.7591 6.66049 15.558 6.81318 15.3227 6.87494C15.0875 6.93671 14.8373 6.90248 14.6273 6.7798C14.4173 6.65712 14.2646 6.45604 14.2028 6.22078C13.5363 3.68754 11.4926 1.83368 8.13698 1.83368C6.04107 1.83368 4.48794 2.55707 3.45558 3.6582C2.41405 4.76941 1.83368 6.33813 1.83368 8.13698V10.1999C1.83368 11.9987 2.41405 13.5674 3.45558 14.6777C4.48794 15.7807 6.04107 16.5032 8.13698 16.5032C9.65435 16.5032 10.8582 16.1511 11.7823 15.5817C12.7129 15.0087 13.2676 14.2486 13.4235 13.3767C13.6023 12.3719 13.3822 11.6824 13.0036 11.1846C12.7959 10.9167 12.5434 10.6868 12.2573 10.5052C12.1335 11.1919 11.9125 11.8401 11.5788 12.348C10.3484 14.2175 7.99578 14.3779 6.44449 13.7591C5.60466 13.4244 4.88494 12.5085 4.66123 11.5265C4.5254 10.9637 4.57064 10.3724 4.7905 9.8368C5.03347 9.25369 5.48363 8.75676 6.12451 8.37902C6.75896 8.00403 7.70148 7.83167 8.63574 7.806C9.19868 7.79041 9.8093 7.828 10.4236 7.92794C10.2952 7.33199 10.0779 6.88732 9.83314 6.65903C9.38938 6.24645 8.65408 5.95581 7.91693 5.96039C7.20455 5.96589 6.60035 6.24003 6.23911 6.81764C6.11024 7.02384 5.90473 7.1704 5.66779 7.22508C5.43086 7.27976 5.18191 7.23807 4.9757 7.1092C4.7695 6.98032 4.62294 6.77481 4.56827 6.53788C4.51359 6.30094 4.55527 6.05199 4.68415 5.84579C5.45155 4.61905 6.71587 4.13588 7.90502 4.12671C9.06941 4.11846 10.2686 4.55946 11.0828 5.31677C11.9061 6.08325 12.26 7.34024 12.3517 8.48354C13.153 8.83286 13.9103 9.34538 14.465 10.0761C15.1811 11.0204 15.4891 12.238 15.2288 13.6985C14.9629 15.1875 14.0231 16.3556 12.7441 17.1431C11.4899 17.9151 9.94224 18.3368 8.13698 18.3368C5.59182 18.3368 3.53443 17.4438 2.11791 15.932C0.709636 14.4302 0 12.3893 0 10.1999V8.13698C0 5.94756 0.709636 3.90667 2.11791 2.40488H2.11699ZM10.5061 9.81021C9.90808 9.68125 9.29682 9.624 8.68525 9.63968C7.86834 9.66169 7.29532 9.81663 7.05602 9.95783C6.70395 10.1659 6.55176 10.3777 6.48391 10.5419C6.41152 10.7259 6.39933 10.9281 6.44907 11.1195C6.56093 11.6109 6.93041 11.9795 7.12387 12.0556C8.15623 12.4681 9.44806 12.2499 10.0468 11.3404C10.2622 11.0122 10.4337 10.4603 10.5052 9.81021H10.5061Z" fill="#D16F9A"/>
</svg>
