<svg width="18" height="18" viewBox="0 0 18 18" fill="none" xmlns="http://www.w3.org/2000/svg">
<path d="M8.8 0C7.05953 0 5.35814 0.516111 3.91099 1.48307C2.46383 2.45002 1.33592 3.8244 0.669864 5.43238C0.0038129 7.04037 -0.170456 8.80976 0.169093 10.5168C0.508643 12.2238 1.34676 13.7918 2.57746 15.0225C3.80817 16.2532 5.37618 17.0914 7.08321 17.4309C8.79024 17.7705 10.5596 17.5962 12.1676 16.9301C13.7756 16.2641 15.15 15.1362 16.1169 13.689C17.0839 12.2419 17.6 10.5405 17.6 8.8C17.5977 6.46681 16.6698 4.22985 15.02 2.58003C13.3702 0.930218 11.1332 0.0023297 8.8 0ZM14.0263 6.78744V7.35592C14.0263 7.39943 14.0176 7.4425 14.0007 7.48259C13.9838 7.52268 13.959 7.55897 13.9279 7.58932C13.8967 7.61967 13.8598 7.64347 13.8192 7.65931C13.7787 7.67514 13.7354 7.68269 13.6919 7.68152C12.7628 7.61567 11.874 7.27642 11.1373 6.70648V10.8671C11.1372 11.3276 11.0453 11.7835 10.867 12.208C10.6887 12.6326 10.4276 13.0174 10.0989 13.3399C9.76724 13.6705 9.37315 13.9318 8.93955 14.1085C8.50595 14.2853 8.04151 14.374 7.57328 14.3695C6.63162 14.3679 5.72786 13.9984 5.05472 13.3399C4.62651 12.9082 4.31807 12.3724 4.15976 11.7853C4.00145 11.1982 3.99872 10.58 4.15184 9.99152C4.29176 9.42656 4.57424 8.90736 4.97288 8.48408C5.27017 8.12071 5.64492 7.82839 6.06971 7.62848C6.4945 7.42856 6.95861 7.32612 7.42808 7.32864H8.14968V8.82728C8.15 8.8708 8.14104 8.9139 8.12339 8.95368C8.10574 8.99347 8.07982 9.02904 8.04734 9.05802C8.01487 9.087 7.97659 9.10872 7.93505 9.12174C7.89352 9.13476 7.84969 9.13877 7.80648 9.13352C7.38751 9.00767 6.93603 9.04941 6.54724 9.24995C6.15844 9.45048 5.86269 9.79414 5.72233 10.2085C5.58197 10.6228 5.60797 11.0755 5.79485 11.471C5.98172 11.8666 6.31488 12.1741 6.72408 12.3288C6.96168 12.4652 7.22744 12.5453 7.50024 12.5638C7.71144 12.5726 7.92264 12.5462 8.12328 12.4828C8.45838 12.37 8.74987 12.1554 8.95702 11.8689C9.16418 11.5823 9.27665 11.2383 9.27872 10.8847V3.30352C9.27861 3.26196 9.28669 3.22078 9.30252 3.18235C9.31834 3.14392 9.34159 3.10899 9.37094 3.07956C9.40029 3.05013 9.43516 3.02678 9.47354 3.01085C9.51193 2.99492 9.55308 2.98672 9.59464 2.98672H10.8398C10.9208 2.98661 10.9987 3.01759 11.0575 3.07326C11.1163 3.12894 11.1515 3.20506 11.1558 3.28592C11.2013 3.67416 11.3247 4.04923 11.5185 4.38868C11.7124 4.72813 11.9727 5.025 12.2839 5.26152C12.7046 5.57734 13.2043 5.771 13.728 5.8212C13.8064 5.82791 13.8798 5.8628 13.9345 5.91943C13.9892 5.97606 14.0215 6.05058 14.0254 6.1292L14.0263 6.78744Z" fill="#D16F9A"/>
</svg>
