<svg width="20" height="20" viewBox="0 0 20 20" fill="none" xmlns="http://www.w3.org/2000/svg">
<path d="M5.69531 0.5L10.7109 7.64062L11.0762 8.16016L11.4951 7.68262L17.8086 0.5H18.2422L11.5264 8.13867L11.2666 8.43359L11.4932 8.75586L19.0381 19.5H14.3047L9 11.9473L8.63477 11.4268L8.21484 11.9043L1.53809 19.5H1.10449L8.18359 11.4502L8.44336 11.1543L8.21777 10.833L0.961914 0.5H5.69531ZM1.99316 1.59082L8.28809 10.4004L9.0791 11.5078L14.4668 19.0508L14.6162 19.2598H18.5557L17.9912 18.4697L11.3867 9.22656L10.5957 8.11914L5.5166 1.00977L5.36719 0.799805H1.42773L1.99316 1.59082Z" fill="#D16F9A" stroke="#D16F9A"/>
</svg>
