<svg width="233" height="70" viewBox="0 0 233 70" fill="none" xmlns="http://www.w3.org/2000/svg">
<path d="M233 63C233 66.9487 229.953 70 226.368 70H6.63154C3.04692 70 0 66.9487 0 63V7C0 3.23077 3.04692 0 6.63154 0H226.189C229.953 0 232.821 3.23077 232.821 7L233 63Z" fill="black"/>
<path d="M51.0785 34.6403C51.0785 29.0762 55.7385 26.2044 55.9177 26.2044C53.2293 22.2557 49.107 21.8967 47.6731 21.7172C44.2677 21.3583 40.8623 23.6916 39.07 23.6916C37.2777 23.6916 34.5893 21.7172 31.7216 21.7172C27.9577 21.7172 24.5523 23.8711 22.5808 27.2813C18.6377 34.1018 21.5054 44.3326 25.4485 49.8967C27.42 52.589 29.5708 55.6403 32.4385 55.6403C35.3062 55.4608 36.3816 53.8454 39.787 53.8454C43.1923 53.8454 44.2677 55.6403 47.1354 55.6403C50.1823 55.6403 52.1539 52.948 53.9462 50.0762C56.097 47.0249 56.9931 43.7942 56.9931 43.7942C56.9931 43.6147 51.2577 41.4608 51.0785 34.6403Z" fill="white"/>
<path d="M45.5215 17.9451C47.1346 15.9708 48.0308 13.4579 47.8515 10.7656C45.7008 10.9451 42.8331 12.381 41.22 14.1759C39.7861 15.7913 38.5315 18.4836 38.89 20.9964C41.3992 21.3554 43.9085 19.9195 45.5215 17.9451Z" fill="white"/>
<path d="M92.3091 55.099H88.3661L86.2153 48.2784H78.6876L76.5368 55.099H72.5938L80.1214 31.7656H84.7814L92.3091 55.099ZM85.4984 45.4066L83.5268 39.3041C83.3476 38.7656 82.9891 37.1502 82.2722 34.9964C82.093 36.0733 81.7345 37.5092 81.1968 39.3041L79.2253 45.4066H85.4984Z" fill="white"/>
<path d="M111.662 46.4828C111.662 49.3546 110.945 51.6879 109.332 53.3033C107.898 54.7392 106.285 55.4571 104.134 55.4571C101.983 55.4571 100.37 54.7392 99.2946 53.1238V61.9187H95.5308V43.97C95.5308 42.1751 95.5308 40.3802 95.3516 38.4058H98.5777L98.7569 41.0982C100.012 39.1238 101.804 38.0469 104.492 38.0469C106.464 38.0469 108.077 38.7648 109.511 40.3802C110.945 41.9956 111.662 43.9699 111.662 46.4828ZM107.718 46.6623C107.718 45.0469 107.36 43.611 106.643 42.5341C105.747 41.4571 104.672 40.9187 103.417 40.9187C102.521 40.9187 101.625 41.2776 100.908 41.8161C100.191 42.3546 99.6531 43.252 99.4739 44.1494C99.2946 44.6879 99.2946 45.0469 99.2946 45.2264V48.0982C99.2946 49.3546 99.6531 50.4315 100.37 51.1494C101.087 52.0469 102.162 52.4058 103.238 52.4058C104.672 52.4058 105.747 51.8674 106.464 50.7905C107.36 49.893 107.718 48.4571 107.718 46.6623Z" fill="white"/>
<path d="M130.834 46.4828C130.834 49.3546 130.117 51.6879 128.504 53.3033C127.249 54.7392 125.457 55.6366 123.485 55.6366C121.335 55.6366 119.722 54.9187 118.646 53.3033V62.0982H114.882V43.97C114.882 42.1751 114.882 40.3802 114.703 38.4058H117.929L118.109 41.0982C119.363 39.1238 121.155 38.0469 123.844 38.0469C125.815 38.0469 127.429 38.7648 128.862 40.3802C130.296 41.9956 130.834 43.9699 130.834 46.4828ZM127.07 46.6623C127.07 45.0469 126.712 43.611 125.995 42.5341C125.278 41.4571 124.023 40.9187 122.769 40.9187C121.872 40.9187 120.976 41.2776 120.259 41.8161C119.542 42.3546 119.005 43.252 118.825 44.1494C118.646 44.6879 118.646 45.0469 118.646 45.2264V48.0982C118.646 49.3546 119.005 50.4315 119.722 51.1494C120.439 52.0469 121.514 52.4058 122.589 52.4058C124.023 52.4058 125.099 51.8674 125.815 50.7905C126.712 49.893 127.07 48.4571 127.07 46.6623Z" fill="white"/>
<path d="M152.526 48.6374C152.526 50.6118 151.809 52.2272 150.375 53.4836C148.941 54.9195 146.79 55.4579 144.102 55.4579C141.592 55.4579 139.621 54.9195 138.008 54.022L138.904 50.9708C140.517 51.8682 142.309 52.4067 144.281 52.4067C145.715 52.4067 146.79 52.0477 147.507 51.5092C148.224 50.7913 148.762 50.0733 148.762 48.9964C148.762 48.099 148.403 47.2015 147.866 46.6631C147.149 45.9451 146.073 45.4066 144.639 44.8682C140.517 43.4323 138.546 41.099 138.546 38.2272C138.546 36.2528 139.262 34.8169 140.696 33.5605C142.13 32.3041 144.102 31.7656 146.432 31.7656C148.582 31.7656 150.375 32.1246 151.629 32.8425L150.733 35.8938C149.479 35.1759 147.866 34.8169 146.252 34.8169C144.998 34.8169 143.922 35.1759 143.206 35.7143C142.668 36.2528 142.309 36.9708 142.309 37.8682C142.309 38.7656 142.668 39.4836 143.385 40.2015C143.922 40.74 145.177 41.2784 146.79 41.9964C148.762 42.8938 150.196 43.7913 151.271 44.8682C151.988 45.5861 152.526 47.022 152.526 48.6374Z" fill="white"/>
<path d="M164.888 41.1016H160.766V49.358C160.766 51.5118 161.483 52.4093 162.916 52.4093C163.633 52.4093 164.171 52.4093 164.53 52.2298L164.709 55.1016C163.992 55.4605 162.916 55.4605 161.841 55.4605C160.407 55.4605 159.153 54.9221 158.436 54.0246C157.54 53.1272 157.181 51.6913 157.181 49.5375V41.1016H154.672V38.2298H157.181V35.1785L160.766 34.1016V38.2298H164.888V41.1016Z" fill="white"/>
<path d="M183.357 46.6619C183.357 49.1747 182.64 51.3285 181.206 52.9439C179.593 54.7388 177.621 55.4567 175.112 55.4567C172.603 55.4567 170.631 54.5593 169.198 52.9439C167.764 51.3285 167.047 49.1747 167.047 46.6619C167.047 43.9696 167.764 41.9952 169.377 40.2003C170.811 38.5849 172.961 37.6875 175.471 37.6875C177.98 37.6875 179.951 38.5849 181.385 40.2003C182.64 41.9952 183.357 44.149 183.357 46.6619ZM179.593 46.6619C179.593 45.0465 179.235 43.7901 178.518 42.7131C177.801 41.4567 176.546 40.7388 175.112 40.7388C173.678 40.7388 172.424 41.4567 171.707 42.7131C170.99 43.7901 170.631 45.226 170.631 46.6619C170.631 48.2772 170.99 49.5337 171.707 50.6106C172.603 51.867 173.678 52.5849 175.112 52.5849C176.546 52.5849 177.621 51.867 178.518 50.6106C179.235 49.5337 179.593 48.2772 179.593 46.6619Z" fill="white"/>
<path d="M195.539 41.6366C195.181 41.6366 194.822 41.4571 194.285 41.4571C193.03 41.4571 191.955 41.9956 191.238 42.893C190.7 43.7905 190.342 44.8674 190.342 46.3033V55.0982H186.578V43.611C186.578 41.6366 186.578 39.8417 186.398 38.4058H189.625L189.804 41.6366H189.983C190.342 40.5597 191.058 39.6623 191.775 38.9443C192.672 38.4058 193.568 38.0469 194.464 38.0469C194.822 38.0469 195.181 38.0469 195.36 38.0469L195.539 41.6366Z" fill="white"/>
<path d="M212.204 45.9443C212.204 46.6623 212.204 47.2007 212.025 47.5597H200.913C200.913 49.1751 201.45 50.4315 202.526 51.3289C203.422 52.0469 204.677 52.5853 206.11 52.5853C207.724 52.5853 209.337 52.4058 210.591 51.8674L211.129 54.3802C209.516 55.0982 207.724 55.4571 205.573 55.4571C202.884 55.4571 200.913 54.7392 199.479 53.1238C198.045 51.5084 197.328 49.5341 197.328 47.0212C197.328 44.5084 198.045 42.3546 199.479 40.7392C200.913 38.9443 202.884 38.0469 205.394 38.0469C207.903 38.0469 209.695 38.9443 210.95 40.7392C211.667 42.1751 212.204 43.7905 212.204 45.9443ZM208.62 45.0469C208.62 43.97 208.44 43.0725 207.903 42.1751C207.186 41.0982 206.29 40.5597 204.856 40.5597C203.601 40.5597 202.705 41.0982 201.809 41.9956C201.271 42.893 200.734 43.7905 200.734 44.8674H208.62V45.0469Z" fill="white"/>
<path d="M83.7019 23.5106H81.7304L80.655 20.1004H77.0704L75.995 23.5106H74.0234L77.7873 12.0234H80.1173L83.7019 23.5106ZM80.4757 18.6645L79.5796 15.6132C79.4004 15.2542 79.2211 14.5363 79.0419 13.4593C78.8627 13.9978 78.6834 14.7157 78.5042 15.6132L77.6081 18.6645H80.4757Z" fill="white"/>
<path d="M93.019 15.2578L89.972 23.5142H88.1797L85.1328 15.2578H87.1043L88.5382 19.5655C88.7174 20.2835 88.8967 21.0014 89.0759 21.7194C89.2551 21.1809 89.4344 20.4629 89.6136 19.5655L91.0474 15.2578H93.019Z" fill="white"/>
<path d="M101.264 23.5138H99.6508L99.4716 22.6164C98.9339 23.3343 98.0377 23.6933 97.1416 23.6933C96.4247 23.6933 95.7077 23.5138 95.17 22.9754C94.8116 22.4369 94.4531 21.8984 94.4531 21.36C94.4531 20.2831 94.8116 19.5651 95.7077 19.0266C96.6039 18.4882 97.6793 18.3087 99.2924 18.3087V17.9497C99.2924 16.8728 98.7547 16.3343 97.5 16.3343C96.6039 16.3343 95.887 16.5138 95.3493 16.8728L94.9908 15.6164C95.7077 15.0779 96.7831 14.8984 97.8585 14.8984C100.009 14.8984 101.085 15.9754 101.085 18.3087V21.5395C101.085 22.4369 101.264 22.9754 101.264 23.5138ZM99.2924 20.642V19.3856C97.3208 19.3856 96.2454 19.9241 96.2454 21.001C96.2454 21.36 96.4247 21.7189 96.6039 21.8984C96.7831 22.0779 97.1416 22.2574 97.5 22.2574C97.8585 22.2574 98.217 22.0779 98.5754 21.8984C98.9339 21.7189 99.1131 21.36 99.2924 21.001V20.642Z" fill="white"/>
<path d="M106.463 12.741C106.463 13.1 106.284 13.2794 106.104 13.4589C105.925 13.6384 105.567 13.8179 105.208 13.8179C104.85 13.8179 104.671 13.6384 104.491 13.4589C104.312 13.2794 104.133 12.9205 104.133 12.741C104.133 12.382 104.312 12.2025 104.491 12.023C104.671 11.8435 105.029 11.6641 105.208 11.6641C105.567 11.6641 105.746 11.8435 105.925 12.023C106.284 12.2025 106.463 12.382 106.463 12.741ZM106.104 23.5102H104.312V15.2538H106.104V23.5102Z" fill="white"/>
<path d="M111.3 11.4844H109.508V23.51H111.3V11.4844Z" fill="white"/>
<path d="M120.803 23.5138H119.189L119.01 22.6164C118.293 23.3343 117.576 23.6933 116.501 23.6933C115.784 23.6933 115.067 23.5138 114.529 22.9754C114.171 22.4369 113.812 21.8984 113.812 21.36C113.812 20.2831 114.171 19.5651 115.067 19.0266C115.963 18.4882 117.039 18.3087 118.652 18.3087V17.9497C118.652 16.8728 118.114 16.3343 116.859 16.3343C115.963 16.3343 115.246 16.5138 114.709 16.8728L114.35 15.6164C115.067 15.0779 116.143 14.8984 117.218 14.8984C119.369 14.8984 120.444 15.9754 120.444 18.3087V21.5395C120.623 22.4369 120.623 22.9754 120.803 23.5138ZM118.831 20.642V19.3856C116.859 19.3856 115.784 19.9241 115.784 21.001C115.784 21.36 115.963 21.7189 116.143 21.8984C116.322 22.0779 116.68 22.2574 117.039 22.2574C117.397 22.2574 117.756 22.0779 118.114 21.8984C118.473 21.7189 118.652 21.36 118.831 21.001V20.642Z" fill="white"/>
<path d="M131.737 19.2023C131.737 20.6382 131.379 21.7151 130.662 22.6126C129.945 23.3305 129.228 23.6895 128.153 23.6895C126.898 23.6895 126.181 23.151 125.643 22.2536L125.464 23.51H123.672C123.672 22.7921 123.672 22.0741 123.672 21.3562V11.4844H125.464V16.51C126.002 15.6126 126.898 15.0741 128.153 15.0741C129.228 15.0741 129.945 15.4331 130.662 16.151C131.379 17.0485 131.737 17.9459 131.737 19.2023ZM129.766 19.3818C129.766 18.6639 129.586 17.9459 129.228 17.4075C128.87 16.869 128.332 16.51 127.615 16.51C127.077 16.51 126.719 16.6895 126.36 16.869C126.002 17.228 125.823 17.5869 125.643 18.1254C125.643 18.3049 125.643 18.4844 125.643 18.6639V20.0998C125.643 20.6382 125.823 21.1767 126.181 21.5357C126.54 21.8946 127.077 22.0741 127.615 22.0741C128.332 22.0741 128.87 21.8946 129.228 21.3562C129.586 20.9972 129.766 20.2792 129.766 19.3818Z" fill="white"/>
<path d="M136.214 11.4844H134.422V23.51H136.214V11.4844Z" fill="white"/>
<path d="M146.255 19.027C146.255 19.386 146.255 19.5655 146.255 19.9245H140.699C140.699 20.8219 141.057 21.3604 141.415 21.7194C141.953 22.0783 142.491 22.2578 143.208 22.2578C144.104 22.2578 144.821 22.0783 145.359 21.8988L145.717 23.1552C145 23.5142 144.104 23.6937 143.029 23.6937C141.774 23.6937 140.699 23.3347 139.982 22.6168C139.265 21.8988 138.906 20.8219 138.906 19.5655C138.906 18.3091 139.265 17.2322 139.982 16.5142C140.699 15.6168 141.595 15.2578 142.849 15.2578C144.104 15.2578 145 15.6168 145.538 16.5142C146.075 17.0527 146.255 17.9501 146.255 19.027ZM144.462 18.4886C144.462 17.9501 144.283 17.4117 144.104 17.0527C143.745 16.5142 143.387 16.3347 142.67 16.3347C142.132 16.3347 141.595 16.5142 141.236 17.0527C140.878 17.4117 140.699 17.9501 140.699 18.4886H144.462Z" fill="white"/>
<path d="M161.487 19.3856C161.487 20.642 161.129 21.7189 160.412 22.4369C159.695 23.3343 158.62 23.6933 157.365 23.6933C156.11 23.6933 155.214 23.3343 154.497 22.4369C153.78 21.7189 153.422 20.642 153.422 19.3856C153.422 18.1292 153.78 17.0523 154.497 16.1548C155.214 15.2574 156.29 14.8984 157.544 14.8984C158.799 14.8984 159.695 15.2574 160.412 16.1548C161.129 17.0523 161.487 18.1292 161.487 19.3856ZM159.516 19.3856C159.516 18.6677 159.336 17.9497 158.978 17.4113C158.62 16.6933 158.082 16.5138 157.365 16.5138C156.648 16.5138 156.11 16.8728 155.752 17.4113C155.393 17.9497 155.214 18.6677 155.214 19.3856C155.214 20.1036 155.393 20.8215 155.752 21.36C156.11 22.0779 156.648 22.2574 157.365 22.2574C158.082 22.2574 158.62 21.8984 158.978 21.1805C159.336 20.8215 159.516 20.1036 159.516 19.3856Z" fill="white"/>
<path d="M171.349 23.514H169.557V18.8474C169.557 17.4115 169.019 16.6935 167.944 16.6935C167.406 16.6935 167.048 16.873 166.689 17.232C166.331 17.5909 166.152 18.1294 166.152 18.6679V23.514H164.359V17.5909C164.359 16.873 164.359 16.155 164.359 15.2576H165.972V16.514C166.152 16.155 166.51 15.7961 166.869 15.6166C167.406 15.2576 167.944 15.0781 168.482 15.0781C169.199 15.0781 169.916 15.2576 170.453 15.7961C171.17 16.3345 171.349 17.232 171.349 18.4884V23.514Z" fill="white"/>
<path d="M183.355 16.6913H181.383V20.64C181.383 21.7169 181.742 22.2554 182.459 22.2554C182.817 22.2554 182.996 22.2554 183.355 22.2554V23.6913C182.996 23.8708 182.459 23.8708 181.921 23.8708C181.204 23.8708 180.666 23.6913 180.308 23.1528C179.949 22.7939 179.77 21.8964 179.77 20.999V16.6913H178.516V15.2554H179.77V13.64L181.563 13.1016V15.0759H183.534V16.6913H183.355Z" fill="white"/>
<path d="M193.037 23.51H191.245V18.8433C191.245 17.4075 190.707 16.6895 189.631 16.6895C188.735 16.6895 188.198 17.0485 187.839 17.9459C187.839 18.1254 187.839 18.3049 187.839 18.6639V23.6895H186.047V11.4844H187.839V16.51C188.377 15.6126 189.273 15.2536 190.348 15.2536C191.065 15.2536 191.782 15.4331 192.32 15.9716C192.858 16.51 193.216 17.5869 193.216 18.6639V23.51H193.037Z" fill="white"/>
<path d="M202.536 19.027C202.536 19.386 202.536 19.5655 202.536 19.9245H196.98C196.98 20.8219 197.338 21.3604 197.697 21.7194C198.234 22.0783 198.772 22.2578 199.489 22.2578C200.385 22.2578 201.102 22.0783 201.64 21.8988L201.998 23.1552C201.281 23.5142 200.206 23.6937 199.31 23.6937C198.055 23.6937 196.98 23.3347 196.263 22.6168C195.546 21.8988 195.188 20.8219 195.188 19.5655C195.188 18.3091 195.546 17.2322 196.263 16.5142C196.98 15.6168 197.876 15.2578 199.131 15.2578C200.385 15.2578 201.281 15.6168 201.819 16.5142C202.177 17.0527 202.536 17.9501 202.536 19.027ZM200.744 18.4886C200.744 17.9501 200.564 17.4117 200.385 17.0527C200.027 16.5142 199.668 16.3347 198.951 16.3347C198.414 16.3347 197.876 16.5142 197.517 17.0527C197.159 17.4117 196.98 17.9501 196.98 18.4886H200.744Z" fill="white"/>
</svg>
