<svg width="233" height="70" viewBox="0 0 233 70" fill="none" xmlns="http://www.w3.org/2000/svg">
<g clip-path="url(#clip0_419_39510)">
<path d="M233 63C233 66.9487 229.953 70 226.368 70H6.63154C3.04692 70 0 66.9487 0 63V7C0 3.23077 3.04692 0 6.63154 0H226.189C229.953 0 232.821 3.23077 232.821 7L233 63Z" fill="black"/>
<path d="M81.911 18.126C81.911 19.5619 81.5525 20.6388 80.6564 21.5363C79.7602 22.6132 78.3264 23.1516 76.8925 23.1516C75.4587 23.1516 74.2041 22.6132 73.1287 21.5363C72.0533 20.4593 71.5156 19.2029 71.5156 17.5875C71.5156 15.9722 72.0533 14.7157 73.1287 13.6388C74.2041 12.5619 75.4587 12.0234 76.8925 12.0234C77.6095 12.0234 78.3264 12.2029 79.0433 12.3824C79.7602 12.7414 80.2979 13.1004 80.6564 13.4593L79.7602 14.3568C79.0433 13.4593 78.1472 13.1004 76.8925 13.1004C75.8172 13.1004 74.921 13.4593 74.0249 14.1773C73.3079 14.8952 72.7702 15.9722 72.7702 17.2286C72.7702 18.485 73.1287 19.3824 74.0249 20.2798C74.7418 20.9978 75.8172 21.3568 76.8925 21.3568C77.9679 21.3568 79.0433 20.9978 79.7602 20.2798C80.2979 19.7414 80.4772 19.0234 80.6564 18.126H76.8925V17.4081H81.911C81.7318 17.5875 81.911 17.9465 81.911 18.126Z" fill="white" stroke="white" stroke-width="0.358974" stroke-miterlimit="10"/>
<path d="M89.797 13.8189H85.137V17.0497H89.4385V18.3061H85.137V21.5369H89.797V22.7933H83.7031V12.5625H89.797V13.8189Z" fill="white" stroke="white" stroke-width="0.358974" stroke-miterlimit="10"/>
<path d="M95.3567 22.9728H94.1021V13.8189H91.2344V12.5625H98.4036V13.8189H95.5359V22.9728H95.3567Z" fill="white" stroke="white" stroke-width="0.358974" stroke-miterlimit="10"/>
<path d="M103.422 22.9728V12.5625H104.676V22.9728H103.422Z" fill="white" stroke="white" stroke-width="0.358974" stroke-miterlimit="10"/>
<path d="M110.77 22.9728H109.336V13.8189H106.469V12.5625H113.638V13.8189H110.77V22.9728Z" fill="white" stroke="white" stroke-width="0.358974" stroke-miterlimit="10"/>
<path d="M127.078 21.5367C126.003 22.6136 124.748 23.152 123.314 23.152C121.881 23.152 120.447 22.6136 119.551 21.5367C118.475 20.4597 117.938 19.2033 117.938 17.7674C117.938 16.3315 118.475 14.8956 119.551 13.9982C120.626 12.9213 121.881 12.3828 123.314 12.3828C124.748 12.3828 126.003 12.9213 127.078 13.9982C128.154 15.0751 128.691 16.3315 128.691 17.7674C128.512 19.2033 128.154 20.4597 127.078 21.5367ZM120.447 20.6392C121.164 21.3572 122.239 21.7161 123.314 21.7161C124.39 21.7161 125.286 21.3572 126.182 20.6392C126.899 19.9213 127.257 18.8444 127.257 17.5879C127.257 16.3315 126.899 15.4341 126.182 14.5367C125.465 13.8187 124.39 13.4597 123.314 13.4597C122.239 13.4597 121.343 13.8187 120.447 14.5367C119.73 15.2546 119.371 16.3315 119.371 17.5879C119.371 18.8444 119.73 19.9213 120.447 20.6392Z" fill="white" stroke="white" stroke-width="0.358974" stroke-miterlimit="10"/>
<path d="M130.484 22.9728V12.5625H132.097L137.116 20.6394V18.6651V12.5625H138.371V22.9728H136.937L131.739 14.3574V16.3317V22.7933H130.484V22.9728Z" fill="white" stroke="white" stroke-width="0.358974" stroke-miterlimit="10"/>
<path d="M117.576 38.0533C113.454 38.0533 110.228 41.1046 110.228 45.4123C110.228 49.7199 113.454 52.7712 117.576 52.7712C121.698 52.7712 124.925 49.7199 124.925 45.4123C124.925 41.1046 121.698 38.0533 117.576 38.0533ZM117.576 49.8994C115.425 49.8994 113.454 48.1046 113.454 45.4123C113.454 42.7199 115.425 40.9251 117.576 40.9251C119.727 40.9251 121.698 42.7199 121.698 45.4123C121.698 47.9251 119.906 49.8994 117.576 49.8994ZM101.445 38.0533C97.323 38.0533 94.0969 41.1046 94.0969 45.4123C94.0969 49.7199 97.323 52.7712 101.445 52.7712C105.568 52.7712 108.794 49.7199 108.794 45.4123C108.973 41.1046 105.568 38.0533 101.445 38.0533ZM101.445 49.8994C99.2946 49.8994 97.323 48.1046 97.323 45.4123C97.323 42.7199 99.2946 40.9251 101.445 40.9251C103.596 40.9251 105.568 42.7199 105.568 45.4123C105.747 47.9251 103.775 49.8994 101.445 49.8994ZM82.4469 40.2071V43.2584H89.9746C89.7953 45.0533 89.2576 46.3097 88.3615 47.2071C87.2861 48.2841 85.4938 49.5405 82.6261 49.5405C77.9661 49.5405 74.3815 45.7712 74.3815 41.2841C74.3815 36.7969 77.9661 33.0276 82.6261 33.0276C85.1353 33.0276 86.9276 33.9251 88.1823 35.1815L90.333 33.0276C88.5407 31.2328 86.0315 29.7969 82.4469 29.7969C76.1738 29.7969 70.7969 35.002 70.7969 41.2841C70.7969 47.5661 75.9946 52.7712 82.4469 52.7712C85.8523 52.7712 88.3615 51.6943 90.333 49.5405C92.3046 47.5661 93.0215 44.5148 93.0215 42.1815C93.0215 41.4635 93.0215 40.7456 92.8423 40.2071H82.4469ZM160.591 42.7199C160.054 41.1046 158.082 38.0533 154.318 38.0533C150.555 38.0533 147.328 41.1046 147.328 45.4123C147.328 49.5405 150.375 52.7712 154.677 52.7712C158.082 52.7712 160.054 50.7969 160.771 49.5405L158.261 47.9251C157.365 49.1815 156.29 49.8994 154.677 49.8994C153.064 49.8994 151.809 49.1815 151.092 47.7456L160.95 43.6174L160.591 42.7199ZM150.555 45.2328C150.555 42.361 152.705 40.9251 154.318 40.9251C155.573 40.9251 156.648 41.643 157.007 42.5405L150.555 45.2328ZM142.668 52.2328H145.895V30.6943H142.668V52.2328ZM137.291 39.6687C136.395 38.7712 135.141 38.0533 133.348 38.0533C129.764 38.0533 126.358 41.2841 126.358 45.4123C126.358 49.5405 129.764 52.7712 133.348 52.7712C135.141 52.7712 136.575 52.0533 137.291 51.1558H137.471V52.0533C137.471 54.9251 136.037 56.361 133.528 56.361C131.556 56.361 130.301 54.9251 129.764 53.6687L126.896 54.9251C127.613 56.8994 129.764 59.2328 133.348 59.2328C137.112 59.2328 140.338 57.0789 140.338 51.5148V38.2328H137.291V39.6687ZM133.707 49.8994C131.556 49.8994 129.585 48.1046 129.585 45.4123C129.585 42.8994 131.377 40.9251 133.707 40.9251C135.858 40.9251 137.65 42.8994 137.65 45.4123C137.471 47.9251 135.858 49.8994 133.707 49.8994ZM175.647 30.6943H167.94V52.2328H171.166V43.9764H175.647C179.231 43.9764 182.637 41.4635 182.637 37.3353C182.637 33.2071 179.231 30.6943 175.647 30.6943ZM175.826 41.1046H171.166V33.7456H175.826C178.156 33.7456 179.59 35.72 179.59 37.5148C179.59 39.1302 178.156 41.1046 175.826 41.1046ZM195.721 38.0533C193.391 38.0533 191.061 39.1302 189.985 41.2841L192.853 42.5405C193.391 41.2841 194.645 40.9251 195.721 40.9251C197.334 40.9251 199.126 42.002 199.126 43.6174V43.7969C198.588 43.4379 197.334 42.8994 195.721 42.8994C192.674 42.8994 189.448 44.5148 189.448 47.7456C189.448 50.6174 191.957 52.4123 194.825 52.4123C196.975 52.4123 198.23 51.5148 198.947 50.2584H199.126V51.8738H202.173V43.6174C202.173 40.2071 199.305 38.0533 195.721 38.0533ZM195.362 49.8994C194.287 49.8994 192.853 49.361 192.853 48.1046C192.853 46.4892 194.645 45.7712 196.258 45.7712C197.692 45.7712 198.409 46.1302 199.126 46.4892C198.947 48.4635 197.155 49.8994 195.362 49.8994ZM213.644 38.4123L209.88 47.7456H209.701L205.937 38.4123H202.531L208.267 51.5148L205.041 58.8738H208.446L217.228 38.4123H213.644ZM184.608 52.2328H187.835V30.6943H184.608V52.2328Z" fill="white"/>
<path d="M17.92 13.4609C17.5616 13.9994 17.2031 14.8968 17.2031 15.9738V54.2045C17.2031 55.2815 17.5616 56.1789 17.92 56.7174L18.0993 56.8968L39.4277 35.5379V35.3584V35.1789L17.92 13.4609Z" fill="url(#paint0_linear_419_39510)"/>
<path d="M46.5989 42.3586L39.4297 35.1791V34.9996V34.8201L46.5989 27.6406L46.7781 27.8201L55.202 32.6663C57.532 34.1022 57.532 36.256 55.202 37.6919L46.5989 42.3586Z" fill="url(#paint1_linear_419_39510)"/>
<path d="M46.778 42.359L39.4296 35L17.9219 56.5385C18.6388 57.4359 20.0726 57.4359 21.5065 56.7179L46.778 42.359Z" fill="url(#paint2_linear_419_39510)"/>
<path d="M46.778 27.6425L21.5065 13.2835C20.0726 12.5656 18.818 12.5656 17.9219 13.463L39.4296 35.0015L46.778 27.6425Z" fill="url(#paint3_linear_419_39510)"/>
<path opacity="0.2" d="M46.5988 42.1797L21.5065 56.3592C20.0726 57.0771 18.818 57.0771 18.1011 56.3592L17.9219 56.5387L18.1011 56.7182C18.818 57.4361 20.0726 57.4361 21.5065 56.7182L46.5988 42.1797Z" fill="black"/>
<path opacity="0.12" d="M17.92 56.3566C17.3824 55.8181 17.2031 54.9207 17.2031 53.8438V54.0232C17.2031 55.1002 17.5616 55.9976 17.92 56.5361V56.3566Z" fill="black"/>
<path opacity="0.12" d="M55.1968 37.3333L46.5938 42.1795L46.773 42.359L55.1968 37.5128C56.4514 36.7949 56.9891 35.8974 56.9891 35C56.9891 35.8974 56.2722 36.6154 55.1968 37.3333Z" fill="black"/>
<path opacity="0.25" d="M21.5047 13.6394L55.2 32.8445C56.2754 33.383 56.9924 34.2804 56.9924 34.9984C56.9924 34.1009 56.4547 33.2035 55.2 32.4855L21.5047 13.2804C19.1747 11.8445 17.2031 13.1009 17.2031 15.7932V16.1522C17.2031 13.4599 19.1747 12.2035 21.5047 13.6394Z" fill="white"/>
</g>
<defs>
<linearGradient id="paint0_linear_419_39510" x1="37.6215" y1="15.4854" x2="8.61492" y2="44.4505" gradientUnits="userSpaceOnUse">
<stop stop-color="#00A0FF"/>
<stop offset="0.00657445" stop-color="#00A1FF"/>
<stop offset="0.2601" stop-color="#00BEFF"/>
<stop offset="0.5122" stop-color="#00D2FF"/>
<stop offset="0.7604" stop-color="#00DFFF"/>
<stop offset="1" stop-color="#00E3FF"/>
</linearGradient>
<linearGradient id="paint1_linear_419_39510" x1="58.3945" y1="35.0021" x2="16.6323" y2="35.0021" gradientUnits="userSpaceOnUse">
<stop stop-color="#FFE000"/>
<stop offset="0.4087" stop-color="#FFBD00"/>
<stop offset="0.7754" stop-color="#FFA500"/>
<stop offset="1" stop-color="#FF9C00"/>
</linearGradient>
<linearGradient id="paint2_linear_419_39510" x1="42.848" y1="38.9686" x2="3.51293" y2="78.2476" gradientUnits="userSpaceOnUse">
<stop stop-color="#FF3A44"/>
<stop offset="1" stop-color="#C31162"/>
</linearGradient>
<linearGradient id="paint3_linear_419_39510" x1="12.5933" y1="0.738089" x2="30.1581" y2="18.2778" gradientUnits="userSpaceOnUse">
<stop stop-color="#32A071"/>
<stop offset="0.0685" stop-color="#2DA771"/>
<stop offset="0.4762" stop-color="#15CF74"/>
<stop offset="0.8009" stop-color="#06E775"/>
<stop offset="1" stop-color="#00F076"/>
</linearGradient>
<clipPath id="clip0_419_39510">
<rect width="233" height="70" fill="white"/>
</clipPath>
</defs>
</svg>
