<svg width="235" height="260" viewBox="0 0 235 260" fill="none" xmlns="http://www.w3.org/2000/svg">
<path d="M223.838 39.6152V184.893H17.9199V39.6152C17.9199 31.5219 24.4386 24.9648 32.4844 24.9648H209.283C217.32 24.9648 223.838 31.5219 223.838 39.6152Z" fill="#797979" stroke="#EFEFED" stroke-width="1.639" stroke-linecap="round" stroke-linejoin="round"/>
<path d="M223.838 39.616V40.2716H17.9199V39.616C17.9199 31.5227 24.4386 24.9648 32.4844 24.9648H209.283C217.32 24.9648 223.838 31.5227 223.838 39.616Z" fill="#D16F9A" stroke="#DFDDD7" stroke-width="1.639" stroke-linecap="round" stroke-linejoin="round"/>
<path d="M195.97 32.6204C195.97 34.0913 194.784 35.2837 193.322 35.2837C191.86 35.2837 190.674 34.0913 190.674 32.6204C190.674 31.1494 191.86 29.957 193.322 29.957C194.784 29.957 195.97 31.1494 195.97 32.6204Z" fill="#EFEFED"/>
<path d="M204.609 32.6204C204.609 34.0913 203.424 35.2837 201.962 35.2837C200.499 35.2837 199.312 34.0913 199.312 32.6204C199.312 31.1494 200.499 29.957 201.962 29.957C203.424 29.957 204.609 31.1494 204.609 32.6204Z" fill="#DFDDD7"/>
<path d="M213.254 32.6204C213.254 34.0913 212.067 35.2837 210.606 35.2837C209.144 35.2837 207.957 34.0913 207.957 32.6204C207.957 31.1494 209.144 29.957 210.606 29.957C212.067 29.957 213.254 31.1494 213.254 32.6204Z" fill="#EFEFED"/>
<path d="M221.64 112.069C208.37 111.414 197.378 123.46 193.975 137.295C193.877 137.68 193.788 138.103 193.708 138.561C193.396 140.258 193.145 142.45 192.948 144.993C191.537 163.256 192.869 199.594 193.003 200.429C193.056 200.725 183.608 200.403 170.518 199.809C165.695 199.585 160.373 199.333 154.846 199.054C126.708 197.662 93.294 195.785 93.294 195.785L91.2677 173.093C91.2677 173.093 87.0618 180.253 72.6666 194.239C58.2722 208.236 35.2518 200.429 37.7251 182.84C39.2787 171.799 45.7621 163.714 53.6113 150.194C56.0397 146.009 58.6028 141.3 61.1837 135.83C64.6208 128.545 67.9696 121.6 71.1667 115.321C72.5687 112.554 73.953 109.922 75.2924 107.443C80.3465 98.0734 84.8734 90.9763 88.5167 87.6614C99.4828 77.6814 122.967 83.4303 129.227 85.4518C135.487 87.4733 144.156 89.9348 158.043 90.9133C171.928 91.8926 193.003 97.9111 204.165 101.819C214.978 105.593 221.239 111.673 221.623 112.051C221.631 112.06 221.64 112.069 221.64 112.069Z" fill="#D16F9A"/>
<path d="M230.978 132.793C218.831 120.528 200.38 115.174 181.865 131.773C160.331 151.078 143.808 154.429 119.591 126.249C102.071 105.865 95.9911 100.665 75.2891 107.443C80.3432 98.073 84.8709 90.9767 88.5142 87.6618C99.4795 77.681 122.965 83.4307 129.224 85.4514C135.484 87.4729 144.155 89.9344 158.04 90.9137C171.926 91.893 193 97.9115 204.162 101.819C214.976 105.592 221.235 111.674 221.62 112.052C221.628 112.061 221.637 112.069 221.637 112.069C226.406 115.905 229.237 123.612 230.978 132.793Z" fill="#D16F9A"/>
<path d="M70.8185 167.866C63.1033 176.311 56.1199 157.993 53.6113 150.195C56.0397 146.01 58.6029 141.304 61.1837 135.833C64.6208 128.547 67.9696 121.603 71.1668 115.324C76.8725 124.101 69.1573 132.141 68.622 136.111C67.2016 146.729 81.909 155.739 70.8185 167.866Z" fill="#D16F9A"/>
<path d="M119.594 92.9032C125.548 104.03 141.359 114.718 160.43 99.9592C160.43 99.9592 162.486 93.83 162.273 93.83C162.06 93.83 122.288 88.9805 122.288 88.9805L119.594 92.9032Z" fill="#FEFEFE"/>
<path d="M135.293 79.1535C130.38 78.0394 123.252 79.2923 118.339 86.8803C113.426 94.4683 112.804 100.733 113.08 100.664C113.357 100.594 120.776 95.8601 124.159 96.208C127.543 96.5568 134.975 98.7721 134.975 98.7721L135.293 79.1535Z" fill="#797979"/>
<path d="M157.435 81.3789C157.435 81.3789 168.3 81.4483 169.753 89.1057C171.205 96.764 167.192 105.952 162.279 110.199C157.366 114.445 160.064 104.073 142.42 99.1996L157.435 81.3789Z" fill="#797979"/>
<path d="M91.2652 173.091C89.409 151.759 89.4082 134.48 89.4082 134.48" stroke="#D16F9A" stroke-width="0.615" stroke-linecap="round" stroke-linejoin="round"/>
<path d="M178.974 224.973C177.777 224.524 176.715 223.976 175.778 223.347C169.045 218.883 168.473 210.179 170.518 199.812C172.098 191.871 175.214 182.95 178.268 174.21C181.741 164.247 185.144 154.526 186.099 146.738C186.233 145.651 186.314 144.609 186.35 143.612C186.547 137.503 187.68 131.449 189.573 126.077C195.127 110.374 207.228 100.483 221.623 112.054C221.631 112.062 221.64 112.072 221.64 112.072C226.407 115.908 229.239 123.615 230.981 132.796C231.606 136.076 232.087 139.543 232.48 143.09V143.117C233.801 155.146 233.989 168.082 234.578 177.712C237.454 224.335 226.345 242.958 178.974 224.973Z" fill="#D16F9A"/>
<path d="M230.98 132.795C220.523 122.24 205.387 116.806 189.572 126.076C195.127 110.374 207.226 100.483 221.622 112.054C221.63 112.063 221.639 112.071 221.639 112.071C226.408 115.907 229.238 123.614 230.98 132.795Z" fill="#D16F9A"/>
<path d="M193.003 200.424C193.056 200.721 183.609 200.398 170.517 199.804C165.696 199.58 160.373 199.329 154.845 199.049C145.38 194.764 139.496 188.566 144.541 179.682C158.257 155.534 183.456 188.989 184.769 165.049C185.662 148.654 189.618 145.096 192.949 144.988C191.538 163.251 192.869 199.589 193.003 200.424Z" fill="#D16F9A"/>
<path d="M196.224 130.176C194.498 134.378 193.337 139.315 192.946 144.992C191.688 163.266 192.866 199.592 193 200.429" stroke="#D16F9A" stroke-width="0.615" stroke-linecap="round" stroke-linejoin="round"/>
<path d="M178.972 224.969C177.775 224.52 176.713 223.972 175.775 223.343C186.624 225.688 202.84 227.799 210.012 221.663C221.281 212.006 214.119 199.628 220.352 192.819C226.576 186.009 235.568 183.799 232.478 143.113C233.8 155.142 233.988 168.078 234.577 177.708C237.452 224.331 226.343 242.953 178.972 224.969Z" fill="#D16F9A"/>
<path d="M21.2479 103.476C20.5933 97.4132 47.0088 85.3294 51.5782 94.1177L43.0941 103.007C43.0941 103.007 25.2343 110.557 21.2479 103.476Z" fill="#D16F9A"/>
<path d="M33.3676 59.7696C29.2232 47.7478 28.914 46.2646 31.4857 45.2783C34.0574 44.2911 40.9219 57.93 41.6981 59.5905C42.4742 61.251 46.1538 68.1301 48.0356 76.0782C49.3019 81.4274 51.0722 93.7618 51.3771 96.7398C52.6631 109.288 32.1416 113.548 31.0352 103.791C29.9289 94.0324 29.7686 90.8696 29.7686 90.8696C29.7686 90.8696 19.146 92.1219 17.4948 84.1462C15.8436 76.1697 16.0486 65.2656 16.0486 65.2656C16.0486 65.2656 -0.180192 62.9143 0.284001 58.6189C0.748192 54.3235 32.5883 62.3025 32.5883 62.3025L33.3676 59.7696Z" fill="#FFBE9D"/>
<path d="M32.5892 62.2972C31.3684 66.7962 31.5693 72.7747 33.5995 78.4918" stroke="#882618" stroke-width="0.615" stroke-linecap="round" stroke-linejoin="round"/>
<path d="M24.8141 53.1674C27.3775 54.4365 29.3845 54.6752 30.0631 51.0252C30.7417 47.3753 27.1678 47.3601 26.0285 47.5751C24.2577 47.9104 23.7149 52.6225 24.8141 53.1674Z" fill="black"/>
<path d="M25.3021 52.233C24.7739 54.1945 24.4076 56.6362 24.4221 56.564C24.8462 56.7664 27.3016 57.5583 27.6615 56.7059C28.0215 55.8527 28.363 52.1672 28.363 52.1672L25.3021 52.233Z" fill="#2D2D2D"/>
<path d="M23.1277 57.7993C21.9256 63.7853 15.7717 96.6263 15.5673 97.6974C15.3629 98.7685 15.7706 103.713 16.191 103.894C16.6115 104.076 18.9191 100.483 19.7524 98.6741C20.5864 96.8659 27.5199 60.821 27.9651 59.1431C29.0515 55.0435 23.9145 53.8797 23.1277 57.7993Z" fill="black"/>
<path d="M17.4937 76.4787C14.1893 77.3201 13.319 80.5188 15.8085 82.5793C18.4909 84.7996 24.9463 83.6401 25.187 80.7287C25.4278 77.8165 20.2433 75.7784 17.4937 76.4787Z" fill="#FFBE9D"/>
<path d="M17.4937 76.4787C14.1893 77.3201 13.319 80.5188 15.8085 82.5793C18.4909 84.7996 24.9463 83.6401 25.187 80.7287C25.4278 77.8165 20.2433 75.7784 17.4937 76.4787Z" stroke="#882618" stroke-width="0.615" stroke-linecap="round" stroke-linejoin="round"/>
<path d="M17.0823 71.2663C13.669 70.8374 12.9041 74.2373 15.3958 76.8541C17.8876 79.4718 25.9054 79.8452 26.2893 76.7176C26.6739 73.5891 19.1757 71.5297 17.0823 71.2663Z" fill="#FFBE9D"/>
<path d="M17.0823 71.2663C13.669 70.8374 12.9041 74.2373 15.3958 76.8541C17.8876 79.4718 25.9054 79.8452 26.2893 76.7176C26.6739 73.5891 19.1757 71.5297 17.0823 71.2663Z" stroke="#882618" stroke-width="0.615" stroke-linecap="round" stroke-linejoin="round"/>
<path d="M13.9527 65.4801C18.2002 64.3681 27.5916 70.4937 27.2689 72.4572C26.8639 74.9272 22.5249 75.3936 16.2685 72.8868C10.4088 70.5386 11.8661 66.0264 13.9527 65.4801Z" fill="#FFBE9D"/>
<path d="M13.9527 65.4801C18.2002 64.3681 27.5916 70.4937 27.2689 72.4572C26.8639 74.9272 22.5249 75.3936 16.2685 72.8868C10.4088 70.5386 11.8661 66.0264 13.9527 65.4801Z" stroke="#882618" stroke-width="0.615" stroke-linecap="round" stroke-linejoin="round"/>
<path d="M21.2474 103.473C33.2557 105.748 51.5777 94.1134 51.5777 94.1134C51.5777 94.1134 62.7768 139.832 65.6665 149.956C68.5569 160.08 86.4821 199.624 53.2313 201.975C31.8896 203.485 29.5862 162.66 28.0424 149.236C26.4986 135.813 21.2474 103.473 21.2474 103.473Z" fill="#D16F9A"/>
<path d="M29.2844 108.552C38.4936 109.006 48.6029 102.563 48.6029 102.563" stroke="#797979" stroke-width="0.615" stroke-linecap="round" stroke-linejoin="round"/>
<path d="M51.5762 94.1133C51.5762 94.1133 62.7761 139.832 65.6665 149.956C67.2432 155.48 73.2954 169.759 73.0702 181.979" stroke="#797979" stroke-width="0.615" stroke-linecap="round" stroke-linejoin="round"/>
<path d="M134.531 161.047C133.898 153.09 124.702 156.299 124.702 156.299C123.424 149.177 113.793 150.074 113.757 157.423C105.722 157.465 104.081 160.421 104.202 164.641L134.531 161.047Z" fill="#DFDDD7"/>
<path d="M121.552 155.64C121.925 156.86 121.244 158.153 120.032 158.529C118.82 158.904 117.533 158.22 117.16 157C116.787 155.78 117.468 154.487 118.68 154.112C119.893 153.736 121.179 154.42 121.552 155.64Z" fill="#FAFBFB"/>
<path d="M121.552 155.64C121.925 156.86 121.244 158.153 120.032 158.529C118.82 158.904 117.533 158.22 117.16 157C116.787 155.78 117.468 154.487 118.68 154.112C119.893 153.736 121.179 154.42 121.552 155.64Z" stroke="#DFDDD7" stroke-width="0.82" stroke-linecap="round" stroke-linejoin="round"/>
<path d="M88.5499 163.442L97.7302 242.531L155.597 236.733L147.295 157.254L88.5499 163.442Z" fill="#FAFBFB"/>
<path d="M88.5499 163.442L97.7302 242.531L155.597 236.733L147.295 157.254L88.5499 163.442Z" stroke="#DFDDD7" stroke-width="0.82" stroke-linecap="round" stroke-linejoin="round"/>
<path d="M120.506 207.836C119.957 215.981 122.142 223.684 124.194 225.851C124.194 225.851 129.69 225.212 130.548 209.424L120.506 207.836Z" fill="#D16F9A"/>
<path d="M123.25 191.566C109.473 191.121 102.718 190.361 100.287 190.448C97.8554 190.535 89.5257 192.353 88.6292 194.059C87.7323 195.762 88.1514 197.439 89.1149 199.043C90.0784 200.647 89.0833 202.34 89.4481 204.149C89.8131 205.96 92.0451 205.839 92.1449 207.711C92.2448 209.582 91.448 211.92 92.9821 213.537C94.5175 215.154 93.2291 217.741 95.76 219.525C98.2909 221.309 116.998 216.752 120.763 214.635L129.771 215.745C129.771 215.745 139.313 197.008 123.25 191.566Z" fill="#FFBE9D"/>
<path d="M100.287 190.448C97.856 190.534 89.5258 192.354 88.6291 194.058C87.7322 195.762 88.1513 197.439 89.1148 199.043C90.0783 200.647 89.0832 202.339 89.448 204.149C89.813 205.959 92.045 205.839 92.1448 207.71C92.2447 209.582 91.4482 211.921 92.9823 213.537C94.5176 215.155 93.2293 217.742 95.7599 219.525" stroke="#FFBE9D" stroke-width="0.615" stroke-linecap="round" stroke-linejoin="round"/>
<path d="M213.121 218.912L213.115 218.923C211.674 225.817 204.419 231.174 187.591 231.263C183.04 231.29 178.627 231.219 174.379 231.078C167.349 230.849 160.791 230.426 154.877 229.907C136.317 228.305 124.193 225.846 124.193 225.846C124.193 225.846 126.25 221.938 127.027 215.41C127.264 213.466 127.382 211.287 127.298 208.906C127.114 203.907 126.04 198.017 123.246 191.57C125.539 191.555 127.99 191.501 130.562 191.419C136.789 191.219 143.725 190.867 150.774 190.574C171.893 189.701 194.029 189.341 201.236 195.184C201.896 195.722 202.54 196.273 203.158 196.853C203.404 197.078 203.653 197.311 203.893 197.547C203.96 197.611 204.023 197.667 204.08 197.733C204.371 198.01 204.647 198.301 204.923 198.591C205.414 199.097 205.879 199.611 206.33 200.139C211.301 205.94 214.356 212.992 213.121 218.912Z" fill="#D16F9A"/>
<path d="M123.25 191.565C147.703 191.422 190.636 186.588 201.24 195.184C203.074 196.669 204.794 198.344 206.331 200.138" stroke="#D16F9A" stroke-width="0.615" stroke-linecap="round" stroke-linejoin="round"/>
<path d="M130.562 191.418C136.267 205.093 133.174 220.882 133.174 220.882" stroke="#D16F9A" stroke-width="0.615" stroke-linecap="round" stroke-linejoin="round"/>
<path d="M213.118 218.923C211.676 225.818 204.421 231.175 187.592 231.264C183.042 231.291 178.628 231.22 174.381 231.078C184.126 230.683 206.919 228.709 213.118 218.923Z" fill="#D16F9A"/>
<path d="M162.71 90.1322C162.71 90.1322 156.781 99.4284 143.337 99.7903C129.904 100.162 127.217 92.1253 127.217 92.1253C128.635 88.4488 130.296 80.6237 131.355 75.1421C132.03 71.6786 132.466 69.1432 132.466 69.1432C132.466 69.1432 134.441 47.455 157.536 48.4881L157.972 52.0354L162.71 90.1322Z" fill="#FFBE9D"/>
<path d="M131.358 75.3167C132.033 71.8589 132.467 69.3203 132.467 69.3203L132.449 69.3205C132.467 69.3203 145.512 62.9691 145.512 62.9691C145.512 62.9691 147.786 78.0709 131.358 75.3167Z" fill="#FFBE9D"/>
<path d="M157.534 48.668L157.978 52.2121C149.947 65.1354 138.832 69.2994 132.465 69.3199L132.447 69.3201C121.907 66.8028 118.208 57.3321 117.482 47.1435C117.303 44.7381 117.292 42.2773 117.407 39.8676C117.797 31.1313 119.694 22.9602 120.634 19.3467C120.634 19.3467 152.018 4.2005 154.549 33.8264C154.549 33.8264 161.294 32.4983 162.641 40.0565C163.758 46.2957 157.534 48.668 157.534 48.668Z" fill="#FFBE9D"/>
<path d="M121.189 38.5596C121.197 39.2587 121.766 39.8196 122.462 39.8114C123.158 39.8032 123.716 39.2291 123.708 38.53C123.7 37.8301 123.129 37.27 122.433 37.2782C121.737 37.2864 121.18 37.8597 121.189 38.5596Z" fill="#562509"/>
<path d="M129.95 36.8408C129.958 37.5407 130.528 38.1008 131.224 38.0926C131.92 38.0845 132.476 37.5112 132.468 36.8113C132.46 36.1114 131.89 35.5513 131.195 35.5595C130.499 35.5676 129.942 36.1409 129.95 36.8408Z" fill="#562509"/>
<path d="M129.208 30.0316C129.362 31.76 135.247 32.3644 135.574 31.3763C136.066 29.8858 128.847 25.974 129.208 30.0316Z" fill="#4D2D19"/>
<path d="M118.032 32.7457C117.993 33.6843 124.443 34.0462 124.177 30.7181C123.985 28.3209 118.141 30.1398 118.032 32.7457Z" fill="#4D2D19"/>
<path d="M153.006 43.2088C155.592 39.2586 159.759 39.6457 160.201 40.3777" stroke="#882618" stroke-width="0.615" stroke-linecap="round" stroke-linejoin="round"/>
<path d="M154.106 41.8606C157.961 39.516 160.145 44.6406 155.231 44.6982" stroke="#882618" stroke-width="0.615" stroke-linecap="round" stroke-linejoin="round"/>
<path d="M125.804 34.819C126.887 36.8853 126.821 38.1391 126.122 39.4803C125.421 40.8207 123.338 43.8841 124.482 46.5624" stroke="#882618" stroke-width="0.615" stroke-linecap="round" stroke-linejoin="round"/>
<path d="M132.824 46.9349C131.934 50.1619 128.112 52.2236 126.331 51.8303C126.331 51.8303 128.219 56.8033 131.426 55.4893C135.112 53.9791 132.824 46.9349 132.824 46.9349Z" fill="#FEFEFE"/>
<path d="M132.824 46.9349C131.934 50.1619 128.112 52.2236 126.331 51.8303C126.331 51.8303 128.219 56.8033 131.426 55.4893C135.112 53.9791 132.824 46.9349 132.824 46.9349Z" stroke="#882618" stroke-width="0.615" stroke-linecap="round" stroke-linejoin="round"/>
<path d="M152.475 47.8008C155.021 49.4995 157.538 48.6731 157.538 48.6731" stroke="#882618" stroke-width="0.615" stroke-linecap="round" stroke-linejoin="round"/>
<path d="M163.748 30.6563C167.431 35.6172 162.009 37.8462 162.009 37.8462C161.355 36.9375 160.616 36.2906 159.852 35.8773C157.461 34.5756 154.812 35.6037 153.779 38.176C146.361 38.4253 149.49 32.5578 149.49 32.5578C142.869 35.3038 142.574 28.4526 145.406 25.3207C140.276 31.2561 133.61 25.4591 134.63 20.1645C132.857 25.9531 126.305 26.2536 127.125 21.4563C126.459 22.6049 125.792 23.5105 125.121 24.1917C120.673 28.7991 116.581 23.9778 118.235 20.3567C111.551 26.9127 108.548 19.6969 114.941 15.732C109.802 11.5875 115.743 5.52548 119.903 8.58507C118.88 1.14098 126.5 0.718975 129.908 5.0364C131.135 -3.1712 141.366 1.18247 141.813 5.05826C149.252 -0.302739 155.1 3.5186 154.45 12.0965C157.43 7.9835 163.949 10.2977 161.579 20.7737C167.797 20.2696 168.969 28.0349 163.748 30.6563Z" fill="#4D2D19"/>
<path d="M159.852 35.8755C157.461 34.5738 154.812 35.602 153.779 38.1743C146.36 38.4236 149.49 32.556 149.49 32.556C142.869 35.302 142.575 28.4509 145.405 25.3182C140.276 31.2536 133.61 25.4565 134.63 20.1619C132.856 25.9506 126.305 26.2519 127.125 21.4537C126.46 22.6024 125.791 23.5088 125.121 24.19C123.244 18.6694 127.231 11.3095 133.484 14.5512C134.254 10.0863 144.39 7.0746 144.458 18.3576C148.165 13.0226 156.704 14.7383 152.794 24.8642C155.936 22.4012 163.279 26.4472 159.852 35.8755Z" fill="#331E13"/>
<path d="M146.21 37.9954C147.131 39.7923 145.47 42.4971 142.503 44.0352C139.534 45.5734 136.383 45.3625 135.463 43.5655C134.543 41.7686 136.202 39.0647 139.169 37.5265C142.137 35.9884 145.29 36.1985 146.21 37.9954Z" fill="#FFBE9D"/>
<path d="M121.397 45.1686C120.947 46.4495 119.402 47.1595 117.482 47.1457C117.302 44.7402 117.291 42.2787 117.406 39.8697C120.26 41.0667 122.037 43.3638 121.397 45.1686Z" fill="#FFBE9D"/>
</svg>
