<svg width="18" height="18" viewBox="0 0 18 18" fill="none" xmlns="http://www.w3.org/2000/svg">
<path d="M5.58882 10.9859C8.12114 13.4961 8.01792 13.4654 8.297 13.6271L8.28053 0.703317C8.28007 0.315395 8.59413 0.000491707 8.98209 0H8.98297C9.37054 0 9.68491 0.313885 9.68541 0.701561L9.70188 13.6271C9.98145 13.4652 9.88258 13.4913 12.3936 11.0024C12.668 10.728 13.1128 10.728 13.387 11.0024C13.6614 11.2767 13.6614 11.7215 13.387 11.9958L10.9863 14.3966C9.88806 15.4948 8.11068 15.4946 7.01266 14.3966L4.59539 11.9793C4.32109 11.705 4.32109 11.2602 4.59539 10.9859C4.86969 10.7116 5.31448 10.7116 5.58882 10.9859ZM15.1727 6.9015H13.1356C12.7477 6.9015 12.4332 7.21602 12.4332 7.60394C12.4332 7.99189 12.7477 8.30638 13.1356 8.30638H15.1727C15.9473 8.30638 16.5776 8.93661 16.5776 9.71126V15.1902C16.5776 15.9649 15.9473 16.5951 15.1727 16.5951H2.80976C2.03511 16.5951 1.40488 15.9649 1.40488 15.1902V9.71126C1.40488 8.93661 2.03511 8.30638 2.80976 8.30638H4.84683C5.23479 8.30638 5.54927 7.99189 5.54927 7.60394C5.54927 7.21602 5.23479 6.9015 4.84683 6.9015H2.80976C1.26046 6.9015 0 8.16196 0 9.71126V15.1902C0 16.7395 1.26046 18 2.80976 18H15.1727C16.722 18 17.9824 16.7395 17.9824 15.1902V9.71126C17.9824 8.16196 16.722 6.9015 15.1727 6.9015Z" fill="#D16F9A"/>
</svg>
