<svg width="26" height="26" viewBox="0 0 26 26" fill="none" xmlns="http://www.w3.org/2000/svg">
<path d="M21.6328 0.8125H17.875C17.5787 0.8125 17.2945 0.930203 17.085 1.13972C16.8755 1.34923 16.7578 1.63339 16.7578 1.92969C16.7578 2.22598 16.8755 2.51015 17.085 2.71966C17.2945 2.92917 17.5787 3.04688 17.875 3.04688H18.9358L17.0518 4.93035C16.2999 4.05265 15.3668 3.34815 14.3167 2.86524C13.2667 2.38233 12.1245 2.13246 10.9688 2.13281C6.54469 2.13281 2.94531 5.73219 2.94531 10.1562C2.94531 14.2015 5.95461 17.5561 9.85156 18.1015V20.0078H8.42969C8.13339 20.0078 7.84923 20.1255 7.63972 20.335C7.4302 20.5445 7.3125 20.8287 7.3125 21.125C7.3125 21.4213 7.4302 21.7055 7.63972 21.915C7.84923 22.1245 8.13339 22.2422 8.42969 22.2422H9.85156V24.0703C9.85156 24.3666 9.96927 24.6508 10.1788 24.8603C10.3883 25.0698 10.6725 25.1875 10.9688 25.1875C11.265 25.1875 11.5492 25.0698 11.7587 24.8603C11.9682 24.6508 12.0859 24.3666 12.0859 24.0703V22.2422H13.5078C13.8041 22.2422 14.0883 22.1245 14.2978 21.915C14.5073 21.7055 14.625 21.4213 14.625 21.125C14.625 20.8287 14.5073 20.5445 14.2978 20.335C14.0883 20.1255 13.8041 20.0078 13.5078 20.0078H12.0859V18.1015C15.9829 17.5561 18.9922 14.2015 18.9922 10.1562C18.9928 9.01925 18.7504 7.89524 18.2812 6.85953L20.5156 4.62516V5.6875C20.5156 5.9838 20.6333 6.26796 20.8428 6.47747C21.0524 6.68698 21.3365 6.80469 21.6328 6.80469C21.9291 6.80469 22.2133 6.68698 22.4228 6.47747C22.6323 6.26796 22.75 5.9838 22.75 5.6875V1.92969C22.75 1.63339 22.6323 1.34923 22.4228 1.13972C22.2133 0.930203 21.9291 0.8125 21.6328 0.8125ZM10.9688 15.9453C9.82378 15.9453 8.70453 15.6058 7.75252 14.9697C6.80051 14.3336 6.05851 13.4294 5.62035 12.3716C5.18219 11.3138 5.06755 10.1498 5.29092 9.02686C5.51429 7.90389 6.06565 6.87238 6.87526 6.06276C7.68488 5.25315 8.71639 4.70179 9.83936 4.47842C10.9623 4.25505 12.1263 4.36969 13.1841 4.80785C14.2419 5.24601 15.1461 5.98801 15.7822 6.94002C16.4183 7.89203 16.7578 9.01128 16.7578 10.1562C16.7561 11.6911 16.1456 13.1625 15.0603 14.2478C13.975 15.3331 12.5036 15.9436 10.9688 15.9453Z" fill="#D16F9A"/>
</svg>
