<svg width="70" height="55" viewBox="0 0 70 55" fill="none" xmlns="http://www.w3.org/2000/svg">
<path d="M14.811 29.4106C14.811 30.2622 14.6075 31.0697 14.202 31.8316C13.7958 32.5919 13.2541 33.2694 12.5771 33.8632C11.9016 34.4578 11.1419 34.9277 10.2973 35.2745C9.4527 35.6212 8.59051 35.7945 7.71149 35.7945C7.16832 35.7945 6.54253 35.7223 5.83258 35.5786C5.12264 35.4326 4.41728 35.2136 3.71804 34.9217C3.02034 34.6297 2.40066 34.2601 1.86055 33.8115C1.31968 33.3637 0.913445 32.8261 0.642624 32.1996C0.373334 31.573 0.171367 30.8119 0.0367214 29.9155C0.0367214 29.9155 0.0306012 29.86 0.0183607 29.7482C0.00612023 29.6349 0 29.5444 0 29.4775C0 29.1186 0.202733 28.8502 0.608963 28.6715C1.28601 28.4244 1.92252 28.245 2.51848 28.1332C3.11596 28.0222 3.49465 27.9553 3.65378 27.9325C3.87793 27.9325 4.03476 27.9948 4.12504 28.118C4.21684 28.2396 4.27345 28.3575 4.2964 28.4708C4.45323 29.0304 4.60548 29.5566 4.75236 30.0493C4.89925 30.542 5.14712 30.9457 5.49597 31.2598C5.84482 31.5723 6.39105 31.7282 7.13619 31.7282C7.9257 31.7282 8.56221 31.5388 9.0457 31.1594C9.53073 30.7785 9.77401 30.3747 9.77401 29.9489C9.77401 29.5011 9.57587 29.0973 9.18035 28.7384C8.78636 28.3795 8.27915 28.0328 7.65947 27.6983C7.03903 27.3622 6.38493 26.998 5.69794 26.6064C5.01018 26.2133 4.35608 25.77 3.7364 25.2773C3.11826 24.7846 2.61104 24.1968 2.21552 23.5133C1.82153 22.8305 1.62492 22.0184 1.62492 21.0771C1.62492 20.1814 1.80394 19.2689 2.1635 18.3398C2.5246 17.4091 3.02646 16.5514 3.66908 15.7667C4.3117 14.982 5.03236 14.3494 5.83258 13.8689C6.63433 13.3868 7.47433 13.145 8.35412 13.145C8.82691 13.145 9.40756 13.218 10.0953 13.364C10.7823 13.51 11.4923 13.729 12.2252 14.021C12.9573 14.3114 13.6497 14.6581 14.303 15.0611C14.9579 15.4649 15.4873 15.9241 15.8912 16.4389C16.2967 16.9544 16.5001 17.5262 16.5001 18.1543C16.5001 18.4888 16.4374 18.8865 16.3135 19.3465C16.1911 19.805 16.0503 20.2361 15.8912 20.6391C15.7336 21.0429 15.5882 21.3569 15.4536 21.5819C15.3411 21.8055 15.2279 21.956 15.1139 22.0351C15.0015 22.1127 14.8446 22.1621 14.6427 22.1841C14.4835 22.207 14.1836 22.2237 13.743 22.2359C13.3039 22.2465 12.8709 22.2511 12.4424 22.2511C12.0155 22.2511 11.7118 22.2511 11.5305 22.2511C11.1021 22.2511 10.8879 22.1066 10.8879 21.8161C10.8879 21.7272 10.9277 21.509 11.0072 21.1622C11.0868 20.814 11.1648 20.4216 11.2429 19.9852C11.3224 19.5472 11.3622 19.161 11.3622 18.8264C11.3622 18.1755 11.2153 17.7216 10.9216 17.4639C10.6293 17.2068 10.2919 17.0776 9.90866 17.0776C9.32265 17.0776 8.79325 17.2966 8.32046 17.7345C7.8469 18.171 7.46821 18.6743 7.18515 19.2461C6.90362 19.8164 6.76286 20.3251 6.76286 20.7729C6.76286 21.3569 6.95411 21.8557 7.33816 22.2693C7.72144 22.6829 8.2233 23.0586 8.84374 23.3946C9.46341 23.7315 10.1114 24.0729 10.7869 24.4196C11.464 24.7663 12.1119 25.1587 12.7301 25.5966C13.3498 26.0331 13.8516 26.5592 14.2357 27.1751C14.6189 27.7918 14.811 28.5369 14.811 29.4106Z" fill="black"/>
<path d="M18.1926 20.3717C19.1389 19.7436 20.1587 19.2449 21.2527 18.8753C22.3459 18.5065 23.5126 18.3218 24.7535 18.3218C25.2936 18.3218 25.9301 18.5408 26.663 18.9787C27.3951 19.4152 28.1104 19.9809 28.8082 20.6758C29.5074 21.3693 30.088 22.0916 30.5494 22.8413C31.0122 23.5918 31.244 24.2913 31.244 24.9399C31.244 26.3291 31.0405 27.662 30.635 28.9394C30.2311 30.2168 29.6726 31.3543 28.9612 32.3519C28.2512 33.348 27.4227 34.1372 26.4763 34.7212C25.5292 35.3036 24.5041 35.5941 23.4009 35.5941C23.0842 35.5941 22.7063 35.5051 22.2656 35.3264C21.8265 35.1462 21.4164 34.8991 21.0355 34.5843C20.9437 34.5174 20.8526 34.4839 20.7631 34.4839C20.5611 34.4839 20.4487 34.5965 20.4265 34.8215C20.2674 35.7841 20.109 36.7589 19.9522 37.7443C19.7946 38.7298 19.6477 39.7152 19.5115 40.7006C19.4664 41.0595 19.2636 41.239 18.9026 41.239C18.745 41.239 18.4527 41.1827 18.0243 41.0717C17.5959 40.9599 17.1499 40.8314 16.687 40.6854C16.2257 40.5394 15.8715 40.4102 15.6252 40.2991C15.4439 40.2094 15.3146 40.0862 15.2365 39.9281C15.157 39.7715 15.1172 39.6156 15.1172 39.4597C15.1172 39.4126 15.1233 39.3335 15.1355 39.2225C15.1463 39.1107 15.1508 39.0552 15.1508 39.0552C15.2633 38.0029 15.4217 36.7817 15.6252 35.3933C15.8271 34.0049 16.0513 32.5648 16.2984 31.0745C16.547 29.5842 16.8125 28.1448 17.094 26.7557C17.3756 25.3672 17.6295 24.1461 17.856 23.0938C17.8782 23.0048 17.8942 22.9098 17.905 22.8079C17.9172 22.7068 17.9233 22.6117 17.9233 22.522C17.9233 22.3418 17.8897 22.084 17.8223 21.7495C17.755 21.4134 17.7213 21.2005 17.7213 21.1108C17.7213 20.9306 17.7711 20.7846 17.8713 20.6728C17.973 20.5618 18.0801 20.4614 18.1926 20.3717ZM22.1157 31.4608C22.7927 31.4608 23.3902 31.2593 23.9089 30.8555C24.4268 30.4525 24.8652 29.937 25.2248 29.3105C25.5858 28.6824 25.8559 28.0103 26.0357 27.294C26.217 26.5762 26.308 25.9155 26.308 25.311C26.308 24.3484 26.0602 23.6488 25.5644 23.2124C25.0687 22.7744 24.4827 22.5554 23.8079 22.5554C23.6037 22.5554 23.4223 22.595 23.2632 22.6741C23.1056 22.7516 22.9825 22.925 22.8929 23.1941C22.7583 23.6648 22.5946 24.2974 22.4033 25.092C22.2113 25.8873 22.0193 26.6994 21.828 27.5282C21.636 28.3577 21.4776 29.0755 21.3537 29.6815C21.2313 30.286 21.1701 30.6327 21.1701 30.7217C21.1701 30.9673 21.2772 31.152 21.4914 31.2752C21.7056 31.3992 21.9137 31.4608 22.1157 31.4608Z" fill="black"/>
<path d="M41.6958 34.9219C41.4694 34.8109 41.3164 34.677 41.2368 34.5204C41.1588 34.3623 41.109 34.2056 41.0869 34.049L40.9859 32.6378C40.9859 32.4576 40.94 32.3671 40.8482 32.3671C40.7808 32.3671 40.7135 32.4234 40.6462 32.5344C40.0602 33.4772 39.4466 34.2284 38.804 34.7881C38.1614 35.3477 37.5807 35.6275 37.0628 35.6275C36.2733 35.6275 35.4838 35.3431 34.6943 34.7729C33.9063 34.2011 33.2591 33.4498 32.7511 32.5192C32.2446 31.5885 31.9922 30.597 31.9922 29.5446C31.9922 28.1334 32.1551 26.7671 32.4818 25.4448C32.8077 24.1233 33.2866 22.931 33.917 21.8681C34.5489 20.8036 35.3216 19.958 36.2335 19.3315C37.147 18.7035 38.1897 18.3887 39.3609 18.3887C39.924 18.3887 40.634 18.5179 41.4908 18.7749C42.3476 19.0327 43.2488 19.3802 44.1959 19.8181C45.1423 20.2546 46.0213 20.7412 46.8338 21.278C47.1046 21.4347 47.2407 21.6696 47.2407 21.9836C47.2407 22.0285 47.2293 22.1015 47.2071 22.2026C47.1841 22.3045 47.1734 22.3547 47.1734 22.3547C46.7221 23.9446 46.361 25.5406 46.0901 27.1419C45.8186 28.744 45.6204 30.2343 45.4965 31.6128C45.3741 32.9898 45.3014 34.1266 45.2792 35.0223C45.2341 35.3811 45.0421 35.5606 44.7039 35.5606C44.4101 35.5606 44.0429 35.5165 43.6023 35.4268C43.1631 35.3378 42.7584 35.2428 42.3874 35.1409C42.0156 35.0397 41.7853 34.9667 41.6958 34.9219ZM40.3432 29.2435C40.5896 29.0185 40.7357 28.7615 40.7808 28.471C40.8726 28.0232 40.9744 27.519 41.0869 26.9594C41.1985 26.3983 41.311 25.8546 41.4235 25.3292C41.5375 24.8023 41.6285 24.3484 41.6958 23.9667C41.7631 23.5857 41.7968 23.3614 41.7968 23.2945C41.7968 23.0253 41.6721 22.8459 41.4235 22.7562C40.9277 22.5782 40.5337 22.4885 40.2423 22.4885C39.6991 22.4885 39.2141 22.7349 38.7856 23.2276C38.3588 23.7203 37.9992 24.3369 37.7054 25.0768C37.4117 25.8151 37.1913 26.5762 37.0444 27.3609C36.8991 28.1456 36.8272 28.8291 36.8272 29.4108C36.8272 29.9035 36.8769 30.3012 36.9771 30.6031C37.0789 30.9057 37.2082 31.0562 37.3658 31.0562C37.7268 31.0562 38.1889 30.8669 38.752 30.4875C39.3166 30.1065 39.8475 29.6921 40.3432 29.2435Z" fill="black"/>
<path d="M40.3237 5.46849C40.1378 5.46849 40.0453 5.38941 40.0453 5.23126C40.0453 5.20541 40.0483 5.18184 40.0544 5.16131C40.0606 5.14154 40.0636 5.13089 40.0636 5.13089C40.1309 4.86781 40.1906 4.61689 40.2442 4.37966C40.297 4.14243 40.3237 3.89835 40.3237 3.64667C40.3237 3.30223 40.2664 3.01102 40.1524 2.77378C40.0399 2.53655 39.8311 2.41794 39.525 2.41794C39.1923 2.41794 38.8465 2.58065 38.4877 2.90457C38.1281 3.22696 37.793 3.6634 37.4809 4.21238C37.1688 4.75984 36.9194 5.36432 36.7342 6.02507C36.5483 6.6843 36.4557 7.35114 36.4557 8.02633C36.4557 8.96309 36.6378 9.62309 37.0035 10.0063C37.3684 10.3895 37.7777 10.5811 38.2306 10.5811C38.5366 10.5811 38.8587 10.5021 39.1976 10.3439C39.5358 10.1858 39.8586 10.0017 40.1646 9.79036C40.4706 9.57746 40.7032 9.40562 40.8623 9.27332C40.8623 9.27332 40.8883 9.25431 40.9419 9.21553C40.9947 9.17523 41.0475 9.15471 41.101 9.15471C41.2211 9.15471 41.3213 9.20185 41.4009 9.29461C41.4659 9.36 41.5455 9.4885 41.6396 9.68087C41.7329 9.87172 41.8232 10.0633 41.9089 10.2557C41.9946 10.4466 42.0504 10.5751 42.0772 10.642C42.1032 10.7074 42.1269 10.7697 42.1476 10.8305C42.1675 10.8898 42.1782 10.9522 42.1782 11.0191C42.1782 11.1248 42.1384 11.2305 42.0588 11.3354C41.8584 11.5993 41.5692 11.8859 41.1897 12.1961C40.8118 12.5064 40.3834 12.774 39.9045 12.9991C39.4248 13.2241 38.9467 13.3367 38.4693 13.3367C38.0424 13.3367 37.5543 13.2348 37.0035 13.0295C36.4527 12.825 35.9302 12.5512 35.4367 12.2083C34.9448 11.8639 34.5661 11.4996 34.3014 11.1164C34.0482 10.721 33.8485 10.2762 33.7016 9.78124C33.5563 9.28473 33.4844 8.75856 33.4844 8.20274C33.4844 7.47736 33.5701 6.73068 33.7414 5.96424C33.9143 5.1978 34.1607 4.46178 34.4789 3.75617C34.7987 3.04903 35.1812 2.41109 35.6265 1.84311C36.0732 1.27588 36.569 0.826509 37.1137 0.495753C37.6584 0.165758 38.2429 0 38.8671 0C39.0523 0 39.3215 0.0471423 39.675 0.139906C40.0277 0.231149 40.4064 0.360409 40.8103 0.526167C41.2158 0.690405 41.609 0.891139 41.9884 1.12837C42.3679 1.3656 42.677 1.63629 42.9157 1.94043C43.1543 2.24458 43.2737 2.56925 43.2737 2.91369C43.2737 3.28322 43.2033 3.66949 43.0625 4.07247C42.9233 4.47622 42.8009 4.81002 42.6953 5.07311C42.6035 5.29817 42.4306 5.4107 42.1782 5.4107C42.0841 5.42287 41.9073 5.43352 41.6488 5.44112C41.3894 5.4472 41.1301 5.45328 40.8715 5.45937C40.6122 5.46545 40.4293 5.46849 40.3237 5.46849Z" fill="#D16F9A"/>
<path d="M48.8162 12.8807C48.6831 12.8161 48.5935 12.737 48.5469 12.6435C48.5017 12.5507 48.4719 12.4579 48.4581 12.3667L48.3969 11.5334C48.3969 11.4284 48.3702 11.3752 48.3174 11.3752C48.2784 11.3752 48.2386 11.4087 48.198 11.4756C47.853 12.0291 47.4911 12.4716 47.1117 12.8016C46.7322 13.1324 46.3903 13.2974 46.0865 13.2974C45.6214 13.2974 45.1547 13.1293 44.6881 12.7925C44.2229 12.4564 43.8404 12.0139 43.5405 11.4664C43.2422 10.9175 43.0938 10.332 43.0938 9.71154C43.0938 8.87819 43.1894 8.07221 43.3814 7.2936C43.575 6.51347 43.8572 5.80938 44.2291 5.18285C44.6024 4.55479 45.0583 4.056 45.5969 3.68646C46.1355 3.31541 46.7506 3.12988 47.4422 3.12988C47.7742 3.12988 48.1927 3.20592 48.6968 3.35799C49.2025 3.51006 49.7342 3.71536 50.2911 3.97236C50.8496 4.23012 51.3691 4.5183 51.8487 4.83613C52.0079 4.92737 52.0874 5.06651 52.0874 5.2528C52.0874 5.27941 52.0798 5.32199 52.066 5.38054C52.0538 5.43985 52.0477 5.46874 52.0477 5.46874C51.7822 6.40778 51.5687 7.34987 51.4081 8.29423C51.249 9.23936 51.1327 10.1183 51.0592 10.9312C50.9858 11.7425 50.9429 12.4123 50.9307 12.9415C50.9039 13.1529 50.7907 13.2578 50.591 13.2578C50.4197 13.2578 50.2032 13.232 49.9423 13.1788C49.6829 13.1263 49.4435 13.0708 49.2232 13.0115C49.0044 12.9507 48.869 12.9073 48.8162 12.8807ZM48.0205 9.53209C48.1651 9.40055 48.2508 9.24848 48.2776 9.07588C48.3304 8.81279 48.3908 8.51549 48.4581 8.18474C48.5255 7.85474 48.5912 7.53387 48.657 7.22365C48.7244 6.91342 48.7772 6.64578 48.8162 6.42071C48.8567 6.19564 48.8774 6.0641 48.8774 6.02532C48.8774 5.86565 48.8039 5.7592 48.657 5.70597C48.3648 5.60104 48.1322 5.54782 47.9593 5.54782C47.6411 5.54782 47.355 5.69381 47.1025 5.98579C46.8493 6.27624 46.6358 6.63893 46.4629 7.07462C46.2916 7.51106 46.1615 7.95967 46.0743 8.42197C45.9886 8.88427 45.9458 9.28802 45.9458 9.63246C45.9458 9.92292 45.9748 10.1571 46.0345 10.335C46.0957 10.5137 46.1722 10.6027 46.264 10.6027C46.4759 10.6027 46.7483 10.4901 47.0811 10.2651C47.4131 10.04 47.7268 9.79594 48.0205 9.53209Z" fill="#D16F9A"/>
<path d="M56.5359 4.67797C56.6683 4.5183 56.8511 4.32669 57.0837 4.10314C57.3163 3.87807 57.568 3.67962 57.8395 3.50702C58.1127 3.33518 58.3689 3.2485 58.6076 3.2485C58.7928 3.2485 58.9121 3.35495 58.9657 3.56785C58.9794 3.67354 58.9871 3.79596 58.9871 3.93586C58.9871 4.07425 58.9871 4.22784 58.9871 4.39816C58.9871 4.66428 58.9825 4.94562 58.9748 5.24368C58.9687 5.54022 58.9595 5.82003 58.9473 6.08311C58.9473 6.32034 58.8203 6.45949 58.5678 6.49979C58.2618 6.55301 57.8954 6.63209 57.4693 6.73702C57.0447 6.84271 56.6599 6.95524 56.3156 7.07462C56.1947 7.11568 56.1014 7.18563 56.0341 7.28448C55.9683 7.3818 55.9224 7.48369 55.8964 7.58862C55.7755 8.15889 55.6462 8.78694 55.5077 9.4743C55.3685 10.1601 55.2423 10.8141 55.1283 11.436C55.0158 12.0565 54.9263 12.5583 54.859 12.9415C54.8054 13.1529 54.6792 13.2578 54.4795 13.2578C54.3609 13.2578 54.162 13.2259 53.8828 13.1605C53.6028 13.0936 53.3236 13.0145 53.0443 12.9233C52.7643 12.8305 52.5585 12.7499 52.4262 12.683C52.3466 12.6427 52.2862 12.5796 52.2456 12.4944C52.2066 12.4093 52.1875 12.3203 52.1875 12.2268C52.1875 12.1888 52.1906 12.1462 52.1967 12.0991C52.2043 12.0527 52.2089 12.0291 52.2089 12.0291L53.6227 3.46748C53.6487 3.36255 53.7053 3.28043 53.791 3.22113C53.8782 3.1603 53.9693 3.12988 54.0634 3.12988C54.1689 3.12988 54.3609 3.1565 54.6387 3.20896C54.9179 3.26218 55.1933 3.32149 55.4649 3.3884C55.738 3.45532 55.9155 3.50854 55.9973 3.54656C56.1947 3.64008 56.2942 3.79215 56.2942 4.00277L56.3156 4.59585C56.3156 4.71599 56.3416 4.7753 56.3952 4.7753C56.4212 4.7753 56.4686 4.74336 56.5359 4.67797Z" fill="#D16F9A"/>
<path d="M61.9798 9.45247C61.9798 9.74292 62.0823 10.0265 62.2888 10.3041C62.4946 10.5824 62.783 10.7207 63.1548 10.7207C63.5014 10.7207 63.8541 10.6622 64.2136 10.5443C64.5724 10.425 64.8915 10.2851 65.1715 10.1246C65.1715 10.1246 65.1875 10.1185 65.2204 10.1064C65.2526 10.0927 65.2893 10.0851 65.3306 10.0851C65.4484 10.0851 65.5479 10.152 65.6274 10.2858C65.6825 10.3649 65.7498 10.4942 65.8294 10.6721C65.909 10.8508 65.9809 11.0264 66.0467 11.1982C66.114 11.3686 66.1476 11.5009 66.1476 11.5936C66.1476 11.7906 66.0811 11.9556 65.9487 12.0894C65.5892 12.4057 65.1776 12.687 64.7124 12.9319C64.2473 13.1752 63.7347 13.2968 63.1763 13.2968C62.9636 13.2968 62.6476 13.2383 62.2276 13.1204C61.8092 13.0011 61.3838 12.833 60.9516 12.6156C60.5209 12.3966 60.1789 12.1282 59.9264 11.8096C59.3817 11.1222 59.1094 10.2508 59.1094 9.19394C59.1094 8.57349 59.2081 7.9135 59.4062 7.21397C59.6059 6.51292 59.8912 5.85141 60.263 5.23096C60.6364 4.61051 61.0747 4.10259 61.5789 3.7072C62.0846 3.3103 62.6377 3.11108 63.2375 3.11108C63.4088 3.11108 63.6429 3.15366 63.9413 3.23882C64.2412 3.32398 64.5602 3.43956 64.8991 3.58555C65.2396 3.73154 65.5632 3.89425 65.8692 4.07218C66.1752 4.25086 66.4208 4.43259 66.6067 4.61659C66.804 4.81581 66.9372 5.05076 67.0045 5.3222C67.0718 5.59213 67.1055 5.84533 67.1055 6.08256C67.1055 6.59808 66.9555 7.09992 66.6556 7.58807C66.3557 8.07698 65.9197 8.48377 65.349 8.80768C64.7775 9.13235 64.0867 9.29431 63.2773 9.29431C63.0891 9.29431 62.8825 9.28138 62.6561 9.25477C62.4311 9.22892 62.2797 9.21523 62.2001 9.21523C62.1465 9.21523 62.0968 9.23576 62.0501 9.27606C62.0027 9.31484 61.9798 9.37339 61.9798 9.45247ZM63.9352 5.25225C63.7738 5.25225 63.6032 5.33437 63.4241 5.49861C63.2444 5.66284 63.0722 5.86814 62.907 6.11298C62.7417 6.35629 62.6048 6.59504 62.4969 6.82771C62.3906 7.05886 62.3378 7.24059 62.3378 7.37213C62.3378 7.53028 62.4242 7.60936 62.5979 7.60936C62.9835 7.60936 63.3086 7.51736 63.5741 7.33259C63.8411 7.1463 64.0469 6.92428 64.1922 6.66652C64.3391 6.40951 64.4126 6.17532 64.4126 5.96394C64.4126 5.77994 64.3789 5.6157 64.3116 5.47123C64.2458 5.32524 64.1203 5.25225 63.9352 5.25225Z" fill="#D16F9A"/>
<path d="M56.1618 52.7832C54.937 52.7832 53.739 52.571 52.6006 52.1528C52.4002 52.0791 52.2984 51.8586 52.3726 51.6601C52.4461 51.4609 52.6679 51.3606 52.8684 51.4335C53.9203 51.8198 55.0288 52.0167 56.1618 52.0167C61.3977 52.0167 65.6566 47.7831 65.6566 42.5799C65.6566 37.3768 61.3977 33.1431 56.1618 33.1431C54.6402 33.1431 53.1874 33.4906 51.8425 34.1742C51.6535 34.2708 51.4209 34.1962 51.3238 34.0077C51.2266 33.8191 51.3016 33.588 51.4913 33.4914C52.9456 32.7516 54.517 32.3767 56.1618 32.3767C61.823 32.3767 66.4285 36.9541 66.4285 42.5799C66.4285 48.2066 61.823 52.7832 56.1618 52.7832Z" fill="black"/>
<path d="M56.0738 35.9201C55.8604 35.9201 55.6875 35.7483 55.6875 35.5369V32.7973C55.6875 32.5852 55.8604 32.4133 56.0738 32.4133C56.2865 32.4133 56.4594 32.5852 56.4594 32.7973V35.5369C56.4594 35.7483 56.2865 35.9201 56.0738 35.9201Z" fill="black"/>
<path d="M56.0738 52.7836C55.8604 52.7836 55.6875 52.6125 55.6875 52.4004V49.6608C55.6875 49.4487 55.8604 49.2776 56.0738 49.2776C56.2865 49.2776 56.4594 49.4487 56.4594 49.6608V52.4004C56.4594 52.6125 56.2865 52.7836 56.0738 52.7836Z" fill="black"/>
<path d="M62.9142 49.9002C62.8132 49.9002 62.713 49.8615 62.6372 49.7839L60.7185 47.8176C60.5701 47.6655 60.5732 47.423 60.7269 47.2755C60.8799 47.128 61.124 47.131 61.2724 47.2838L63.1911 49.2501C63.3395 49.4022 63.3357 49.6448 63.1827 49.7923C63.1077 49.8645 63.0106 49.9002 62.9142 49.9002Z" fill="black"/>
<path d="M61.3702 38.2025C61.2692 38.2025 61.169 38.163 61.0932 38.0854C60.9448 37.9333 60.9487 37.6908 61.1017 37.5433L63.08 35.6363C63.233 35.4888 63.4771 35.4926 63.6255 35.6446C63.7739 35.7967 63.7701 36.0393 63.6171 36.1868L61.6387 38.0938C61.5637 38.166 61.4666 38.2025 61.3702 38.2025Z" fill="black"/>
<path d="M65.9004 42.9999H62.9176C62.7041 42.9999 62.5312 42.828 62.5312 42.6166C62.5312 42.4045 62.7041 42.2327 62.9176 42.2327H65.9004C66.1131 42.2327 66.286 42.4045 66.286 42.6166C66.286 42.828 66.1131 42.9999 65.9004 42.9999Z" fill="black"/>
<path d="M55.4922 26.958H56.8455V30.594H55.4922V26.958Z" fill="black"/>
<path d="M56.8405 30.9777H55.4871C55.2745 30.9777 55.1016 30.8058 55.1016 30.5944V26.9584C55.1016 26.747 55.2745 26.5752 55.4871 26.5752H56.8405C57.0532 26.5752 57.226 26.747 57.226 26.9584V30.5944C57.226 30.8058 57.0532 30.9777 56.8405 30.9777ZM55.8735 30.2105H56.4541V27.3424H55.8735V30.2105Z" fill="black"/>
<path d="M58.866 26.3064C58.866 26.6668 58.3466 26.958 57.7055 26.958H54.6293C53.9874 26.958 53.4688 26.6661 53.4688 26.3064C53.4688 25.9468 53.9874 25.6548 54.6293 25.6548H57.7055C58.3466 25.6548 58.866 25.9468 58.866 26.3064Z" fill="black"/>
<mask id="mask0_419_50286" style="mask-type:luminance" maskUnits="userSpaceOnUse" x="53" y="25" width="7" height="3">
<path d="M53.0391 25.2729H59.3062V27.4567H53.0391V25.2729Z" fill="white"/>
</mask>
<g mask="url(#mask0_419_50286)">
<path d="M57.709 27.3419H54.6328C53.7507 27.3419 53.0859 26.8964 53.0859 26.3063C53.0859 25.7163 53.7507 25.2715 54.6328 25.2715H57.709C58.5903 25.2715 59.2551 25.7163 59.2551 26.3063C59.2559 26.8964 58.5903 27.3419 57.709 27.3419ZM54.6328 26.0387C54.1356 26.0387 53.8701 26.2447 53.8579 26.3079C53.8701 26.3679 54.1356 26.5747 54.6328 26.5747H57.709C58.2063 26.5747 58.4717 26.3679 58.484 26.3056C58.4717 26.2447 58.2055 26.0387 57.709 26.0387H54.6328Z" fill="black"/>
</g>
<path d="M66.6116 30.7817L67.5816 31.7185L65.0333 34.3265L64.0625 33.3898L66.6116 30.7817Z" fill="black"/>
<path d="M65.0361 34.7083C64.939 34.7083 64.8426 34.6725 64.7676 34.6003L63.7968 33.6628C63.7233 33.5921 63.6813 33.4948 63.6797 33.3936C63.6782 33.2917 63.7172 33.1936 63.7891 33.1207L66.3374 30.5126C66.4866 30.3613 66.7307 30.3575 66.8837 30.505L67.8537 31.4418C67.9272 31.5125 67.9692 31.6098 67.9708 31.7117C67.9723 31.8136 67.9333 31.9109 67.8621 31.9839L65.3131 34.5919C65.2373 34.6695 65.1371 34.7083 65.0361 34.7083ZM64.6115 33.3799L65.0285 33.7822L67.039 31.7246L66.622 31.3224L64.6115 33.3799Z" fill="black"/>
<path d="M69.4899 32.651C69.2375 32.9087 68.6599 32.7582 68.1993 32.3141L65.9937 30.1836C65.5332 29.7396 65.3649 29.1708 65.6173 28.9123C65.8698 28.6545 66.4466 28.8051 66.9072 29.2491L69.1135 31.3789C69.5733 31.8237 69.7416 32.3924 69.4899 32.651Z" fill="black"/>
<path d="M69.1584 33.1601C68.7667 33.1601 68.3115 32.9465 67.9413 32.5891L65.7349 30.4586C65.4656 30.1986 65.2675 29.8883 65.178 29.5857C65.0678 29.2131 65.1313 28.8694 65.3509 28.6444C65.5062 28.4862 65.7204 28.4026 65.9698 28.4026C66.3607 28.4026 66.8159 28.6155 67.1862 28.9736L69.3925 31.1034C70.0252 31.7139 70.1905 32.4941 69.7766 32.9176C69.622 33.0765 69.4078 33.1601 69.1584 33.1601ZM65.9698 29.169C65.9285 29.169 65.9078 29.1774 65.904 29.1804C65.8703 29.2321 65.9162 29.5637 66.2727 29.9081L68.4791 32.0386C68.7323 32.2835 69.0031 32.3929 69.1584 32.3929C69.1997 32.3929 69.2204 32.3853 69.2242 32.3823C69.2571 32.3306 69.2112 31.9983 68.8547 31.6539L66.6484 29.5234C66.3951 29.2793 66.1251 29.169 65.9698 29.169Z" fill="black"/>
<mask id="mask1_419_50286" style="mask-type:luminance" maskUnits="userSpaceOnUse" x="53" y="30" width="16" height="25">
<path d="M53.0391 30.1819H68.7069V55H53.0391V30.1819Z" fill="white"/>
</mask>
<g mask="url(#mask1_419_50286)">
<path d="M56.1704 54.9862C55.2309 54.9862 54.2937 54.882 53.3856 54.676C53.1783 54.6288 53.0483 54.4235 53.0957 54.2167C53.1431 54.0107 53.3489 53.8799 53.5578 53.9286C54.4093 54.1217 55.2883 54.219 56.1704 54.219C62.618 54.219 67.8631 49.006 67.8631 42.5985C67.8631 36.1902 62.618 30.9772 56.1704 30.9772C55.2883 30.9772 54.4093 31.0752 53.5578 31.2684C53.3497 31.3155 53.1431 31.1863 53.0957 30.9802C53.0483 30.7734 53.1783 30.5673 53.3856 30.5209C54.2945 30.3149 55.2309 30.21 56.1704 30.21C63.0434 30.21 68.635 35.7674 68.635 42.5985C68.635 49.4295 63.0434 54.9862 56.1704 54.9862Z" fill="#D16F9A"/>
</g>
<path d="M56.1668 42.9817C56.0964 42.9817 56.0261 42.9627 55.9641 42.9247C55.8501 42.8547 55.7812 42.7308 55.7812 42.5985V37.184C55.7812 36.9726 55.9534 36.8008 56.1668 36.8008C56.3803 36.8008 56.5532 36.9726 56.5532 37.184V41.9781L59.4052 40.5607C59.5957 40.4657 59.8275 40.5425 59.9224 40.7318C60.018 40.9212 59.9407 41.1523 59.7502 41.2466L56.339 42.9414C56.2846 42.968 56.2257 42.9817 56.1668 42.9817Z" fill="#D16F9A"/>
<path d="M50.139 35.1564H46.6903C46.4776 35.1564 46.3047 34.9845 46.3047 34.7731C46.3047 34.561 46.4776 34.3892 46.6903 34.3892H50.139C50.3525 34.3892 50.5246 34.561 50.5246 34.7731C50.5246 34.9845 50.3525 35.1564 50.139 35.1564Z" fill="black"/>
<path d="M51.014 52.8199H47.566C47.3526 52.8199 47.1797 52.6481 47.1797 52.4367C47.1797 52.2246 47.3526 52.0527 47.566 52.0527H51.014C51.2275 52.0527 51.4004 52.2246 51.4004 52.4367C51.4004 52.6481 51.2275 52.8199 51.014 52.8199Z" fill="black"/>
<path d="M47.2713 44.0694H41.4403C41.2276 44.0694 41.0547 43.8983 41.0547 43.6862C41.0547 43.4741 41.2276 43.303 41.4403 43.303H47.2713C47.4848 43.303 47.6577 43.4741 47.6577 43.6862C47.6577 43.8983 47.4848 44.0694 47.2713 44.0694Z" fill="black"/>
<path d="M47.701 47.1903H41.8699C41.6573 47.1903 41.4844 47.0185 41.4844 46.8071C41.4844 46.5949 41.6573 46.4231 41.8699 46.4231H47.701C47.9144 46.4231 48.0873 46.5949 48.0873 46.8071C48.0873 47.0185 47.9144 47.1903 47.701 47.1903Z" fill="black"/>
<path d="M49.4276 50.2775H43.5965C43.3831 50.2775 43.2109 50.1056 43.2109 49.8942C43.2109 49.6821 43.3831 49.5103 43.5965 49.5103H49.4276C49.641 49.5103 49.8131 49.6821 49.8131 49.8942C49.8131 50.1056 49.641 50.2775 49.4276 50.2775Z" fill="black"/>
<path d="M48.4137 37.8321H42.9254C42.712 37.8321 42.5391 37.661 42.5391 37.4489C42.5391 37.2368 42.712 37.0657 42.9254 37.0657H48.4137C48.6272 37.0657 48.7993 37.2368 48.7993 37.4489C48.7993 37.661 48.6272 37.8321 48.4137 37.8321Z" fill="black"/>
<mask id="mask2_419_50286" style="mask-type:luminance" maskUnits="userSpaceOnUse" x="40" y="39" width="8" height="2">
<path d="M40.8594 39.915H47.9451V40.8883H40.8594V39.915Z" fill="white"/>
</mask>
<g mask="url(#mask2_419_50286)">
<path d="M47.4587 40.8636H41.2528C41.0401 40.8636 40.8672 40.6925 40.8672 40.4804C40.8672 40.2682 41.0401 40.0972 41.2528 40.0972H47.4587C47.6714 40.0972 47.8443 40.2682 47.8443 40.4804C47.8443 40.6925 47.6714 40.8636 47.4587 40.8636Z" fill="black"/>
</g>
</svg>
